<svg id="Developer" xmlns="http://www.w3.org/2000/svg" viewBox="0 0 270.17 40.29"><defs><style>.cls-1{fill:#008fbe;}.cls-2{fill:#333e48;}</style></defs><title>arm-developer</title><path class="cls-1" d="M297.06,256.21c0,4.85,3.06,8.9,7.77,8.9,4.12,0,7.91-3,7.91-8.84,0-6.11-3.79-9-7.91-9-4.72,0-7.77,4-7.77,9m15.28-14.08h6.51v28h-6.51v-2.92A10.74,10.74,0,0,1,304,271c-8.64,0-13.55-7.18-13.55-14.88,0-9.1,6.24-14.68,13.62-14.68a10.2,10.2,0,0,1,8.3,4Z" transform="translate(-290.41 -239.43)"/><path class="cls-1" d="M326.6,242.13h6.51v2.52a11.27,11.27,0,0,1,2.72-2.33,7.52,7.52,0,0,1,4-.93,9.66,9.66,0,0,1,5.12,1.33l-2.66,5.91a5.89,5.89,0,0,0-3.32-1,5.07,5.07,0,0,0-4.05,1.53c-1.79,1.93-1.79,4.58-1.79,6.44V270.1H326.6Z" transform="translate(-290.41 -239.43)"/><path class="cls-1" d="M349.14,242.13h6.51v2.59a8.62,8.62,0,0,1,6.91-3.32,8.21,8.21,0,0,1,7.24,4.12,9.91,9.91,0,0,1,8.3-4.12,9,9,0,0,1,8,4.38c.53.93,1.46,3,1.46,7V270.1H381V254.69c0-3.12-.33-4.38-.6-5a3.69,3.69,0,0,0-3.72-2.46,4.81,4.81,0,0,0-3.85,2.06c-1.13,1.59-1.26,4-1.26,6.38V270.1h-6.51V254.69c0-3.12-.33-4.38-.6-5a3.69,3.69,0,0,0-3.72-2.46,4.81,4.81,0,0,0-3.85,2.06c-1.13,1.59-1.26,4-1.26,6.38V270.1h-6.51Z" transform="translate(-290.41 -239.43)"/><path class="cls-2" d="M398.92,242h5.71A15.24,15.24,0,0,1,415,245.31a13.66,13.66,0,0,1,4.79,10.75,13.34,13.34,0,0,1-4.92,10.75c-2.56,2.18-5.25,3.23-10.25,3.23h-5.67ZM402,267.12h2.73a12,12,0,0,0,8-2.52,10.72,10.72,0,0,0,3.78-8.53c0-6.72-4.71-11.09-11.8-11.09H402Z" transform="translate(-290.41 -239.43)"/><path class="cls-2" d="M439.54,265.6a10.42,10.42,0,0,1-2.14,2.81,8.46,8.46,0,0,1-5.8,2.14c-4.2,0-8.61-2.65-8.61-9.12,0-5.21,3.19-9.24,8.44-9.24A7.8,7.8,0,0,1,438,255.4a11.7,11.7,0,0,1,1.64,6.55H426.1c0,3.61,2.52,5.92,5.54,5.92a5.3,5.3,0,0,0,3.57-1.26,7,7,0,0,0,1.81-2.39Zm-3-6.17a5.22,5.22,0,0,0-5.12-4.54,5.3,5.3,0,0,0-5.12,4.54Z" transform="translate(-290.41 -239.43)"/><path class="cls-2" d="M444.49,252.62l5.21,11.76,5.21-11.76h3.36l-8.57,18.57-8.57-18.57Z" transform="translate(-290.41 -239.43)"/><path class="cls-2" d="M476.29,265.6a10.42,10.42,0,0,1-2.14,2.81,8.46,8.46,0,0,1-5.8,2.14c-4.2,0-8.61-2.65-8.61-9.12,0-5.21,3.19-9.24,8.44-9.24a7.8,7.8,0,0,1,6.59,3.19,11.7,11.7,0,0,1,1.64,6.55H462.85c0,3.61,2.52,5.92,5.54,5.92a5.3,5.3,0,0,0,3.57-1.26,7,7,0,0,0,1.81-2.39Zm-3-6.17a5.22,5.22,0,0,0-5.12-4.54,5.3,5.3,0,0,0-5.12,4.54Z" transform="translate(-290.41 -239.43)"/><path class="cls-2" d="M483.43,239.43v30.62h-3V239.43Z" transform="translate(-290.41 -239.43)"/><path class="cls-2" d="M487.42,261.4a9.24,9.24,0,1,1,9.24,9.16A9,9,0,0,1,487.42,261.4Zm3.11,0a6.14,6.14,0,1,0,12.27,0c0-4.29-2.94-6.51-6.13-6.51S490.53,257.16,490.53,261.4Z" transform="translate(-290.41 -239.43)"/><path class="cls-2" d="M512.91,279.72h-3V252.62h3v2.44a7.5,7.5,0,0,1,6-2.86c5.46,0,8.49,4.54,8.49,9.24s-3.07,9.12-8.36,9.12a7.4,7.4,0,0,1-6.09-2.94Zm11.34-18.27c0-4.29-2.9-6.55-5.71-6.55s-5.8,2.31-5.8,6.51c0,3.57,2.27,6.47,5.84,6.47S524.25,264.93,524.25,261.44Z" transform="translate(-290.41 -239.43)"/><path class="cls-2" d="M546.81,265.6a10.42,10.42,0,0,1-2.14,2.81,8.46,8.46,0,0,1-5.8,2.14c-4.2,0-8.61-2.65-8.61-9.12,0-5.21,3.19-9.24,8.44-9.24a7.8,7.8,0,0,1,6.59,3.19,11.7,11.7,0,0,1,1.64,6.55H533.36c0,3.61,2.52,5.92,5.54,5.92a5.3,5.3,0,0,0,3.57-1.26,7,7,0,0,0,1.81-2.39Zm-3-6.17a5.22,5.22,0,0,0-5.12-4.54,5.3,5.3,0,0,0-5.12,4.54Z" transform="translate(-290.41 -239.43)"/><path class="cls-2" d="M550.92,252.62h3v1.89a4.85,4.85,0,0,1,3.95-2.31,6.38,6.38,0,0,1,2.69.71l-1.43,2.73a3.11,3.11,0,0,0-1.76-.59,2.93,2.93,0,0,0-2.44,1.09c-.5.67-1,1.85-1,4.71v9.2h-3Z" transform="translate(-290.41 -239.43)"/></svg>