<?xml version="1.0" encoding="utf-8"?>
<!-- Generator: Adobe Illustrator 16.0.3, SVG Export Plug-In . SVG Version: 6.00 Build 0)  -->
<!DOCTYPE svg PUBLIC "-//W3C//DTD SVG 1.1//EN" "http://www.w3.org/Graphics/SVG/1.1/DTD/svg11.dtd">
<svg version="1.1" id="Layer_1" xmlns="http://www.w3.org/2000/svg" xmlns:xlink="http://www.w3.org/1999/xlink" x="0px" y="0px"
	 width="200px" height="200px" viewBox="0 0 200 200" enable-background="new 0 0 200 200" xml:space="preserve">
<g>
	<g>
		<g>
			<polygon fill="#555A5A" points="99.977,129.42 99.256,130.253 97.81,129.837 98.032,129.579 98.258,129.317 98.807,129.479 
				99.079,129.159 99.525,129.289 			"/>
		</g>
		<g>
			<polygon fill="#555A5A" points="96,128.993 95.775,129.251 93.742,128.665 93.963,128.405 94.186,128.142 96.225,128.731 			"/>
		</g>
		<g>
			<polygon fill="#555A5A" points="92.152,127.556 91.926,127.817 91.703,128.075 89.67,127.489 89.892,127.231 90.112,126.973 			
				"/>
		</g>
		<g>
			<polygon fill="#555A5A" points="88.072,126.383 87.854,126.644 87.637,126.903 85.597,126.313 85.817,126.056 86.039,125.797 			
				"/>
		</g>
		<g>
			<polygon fill="#555A5A" points="83.999,125.208 83.78,125.469 83.563,125.727 81.523,125.137 81.743,124.881 81.966,124.622 			
				"/>
		</g>
		<g>
			<polygon fill="#555A5A" points="79.933,124.035 79.71,124.295 79.489,124.551 77.457,123.965 77.673,123.707 77.893,123.445 			
				"/>
		</g>
		<g>
			<polygon fill="#555A5A" points="75.859,122.859 75.635,123.12 75.417,123.375 73.378,122.793 73.602,122.533 73.826,122.273 			
				"/>
		</g>
		<g>
			<polygon fill="#555A5A" points="71.786,121.684 71.561,121.945 71.338,122.203 69.304,121.617 69.527,121.358 69.753,121.097 			
				"/>
		</g>
		<g>
			<polygon fill="#555A5A" points="67.713,120.508 67.49,120.771 67.271,121.031 65.23,120.441 65.453,120.184 65.68,119.921 			"/>
		</g>
		<g>
			<polygon fill="#555A5A" points="63.64,119.339 63.418,119.597 63.197,119.855 61.164,119.269 61.382,119.01 61.601,118.75 			"/>
		</g>
		<g>
			<polygon fill="#555A5A" points="59.567,118.163 59.345,118.422 59.124,118.679 57.091,118.093 57.312,117.836 57.533,117.577 			
				"/>
		</g>
		<g>
			<polygon fill="#555A5A" points="55.493,116.987 55.271,117.247 55.051,117.503 53.018,116.917 53.237,116.661 53.461,116.401 			
				"/>
		</g>
		<g>
			<polygon fill="#555A5A" points="51.42,115.812 51.2,116.073 50.984,116.331 48.944,115.741 49.163,115.486 49.387,115.226 			"/>
		</g>
		<g>
			<polygon fill="#555A5A" points="47.354,114.639 47.129,114.899 46.904,115.159 44.872,114.573 45.092,114.312 45.314,114.049 			
				"/>
		</g>
		<g>
			<polygon fill="#555A5A" points="43.28,113.463 43.055,113.725 42.832,113.983 40.798,113.397 41.021,113.139 41.247,112.877 			
				"/>
		</g>
		<g>
			<polygon fill="#555A5A" points="39.201,112.291 38.979,112.55 38.758,112.807 36.726,112.221 36.946,111.963 37.168,111.705 			
				"/>
		</g>
		<g>
			<polygon fill="#555A5A" points="35.128,111.115 34.909,111.376 34.691,111.635 32.651,111.045 32.873,110.788 33.095,110.529 			
				"/>
		</g>
		<g>
			<polygon fill="#555A5A" points="31.061,109.943 30.839,110.202 30.619,110.459 28.585,109.873 28.802,109.614 29.021,109.354 			
				"/>
		</g>
		<g>
			<polygon fill="#555A5A" points="26.988,108.768 26.765,109.027 26.545,109.283 24.512,108.697 24.731,108.441 24.955,108.181 			
				"/>
		</g>
		<g>
			<polygon fill="#555A5A" points="22.915,107.591 22.689,107.852 22.466,108.111 20.432,107.525 20.656,107.266 20.881,107.005 			
				"/>
		</g>
		<g>
			<polygon fill="#555A5A" points="18.842,106.416 18.619,106.678 18.398,106.938 16.359,106.349 16.582,106.091 16.809,105.829 			
				"/>
		</g>
		<g>
			<polygon fill="#555A5A" points="6.622,102.895 6.4,103.154 6.18,103.411 4.146,102.825 4.367,102.568 4.589,102.309 			"/>
		</g>
		<g>
			<polygon fill="#555A5A" points="2.273,101.244 2,101.564 2.549,101.719 2.33,101.98 2.113,102.239 0.666,101.822 1.38,100.986 
				1.828,101.115 			"/>
		</g>
		<g>
			<polygon fill="#555A5A" points="4.227,98.962 3.247,100.101 2.804,99.973 2.354,99.843 3.327,98.7 3.78,98.832 			"/>
		</g>
		<g>
			<polygon fill="#555A5A" points="6.18,96.68 5.2,97.819 4.756,97.691 4.307,97.561 5.275,96.422 5.729,96.552 			"/>
		</g>
		<g>
			<polygon fill="#555A5A" points="8.127,94.395 7.153,95.538 6.706,95.411 6.255,95.283 7.229,94.141 7.682,94.269 			"/>
		</g>
		<g>
			<polygon fill="#555A5A" points="10.074,92.116 9.107,93.255 8.657,93.128 8.209,93.001 9.182,91.858 9.633,91.989 			"/>
		</g>
		<g>
			<polygon fill="#555A5A" points="12.027,89.835 11.055,90.978 10.608,90.848 10.156,90.716 11.135,89.577 11.584,89.706 			"/>
		</g>
		<g>
			<polygon fill="#555A5A" points="13.981,87.553 13.008,88.695 12.56,88.565 12.108,88.434 13.089,87.295 13.535,87.424 			"/>
		</g>
		<g>
			<polygon fill="#555A5A" points="15.936,85.271 14.955,86.41 14.512,86.282 14.063,86.152 15.036,85.01 15.488,85.141 			"/>
		</g>
		<g>
			<polygon fill="#555A5A" points="17.889,82.989 16.908,84.128 16.463,84 16.016,83.87 16.99,82.728 17.439,82.858 			"/>
		</g>
		<g>
			<polygon fill="#555A5A" points="19.836,80.704 18.863,81.847 18.414,81.72 17.964,81.593 18.938,80.45 19.39,80.578 			"/>
		</g>
		<g>
			<polygon fill="#555A5A" points="21.789,78.422 20.816,79.565 20.365,79.437 19.911,79.307 20.891,78.167 21.342,78.295 			"/>
		</g>
		<g>
			<polygon fill="#555A5A" points="23.737,76.144 22.764,77.287 22.315,77.156 21.864,77.025 22.845,75.886 23.292,76.016 			"/>
		</g>
		<g>
			<polygon fill="#555A5A" points="25.69,73.862 24.711,75.001 24.268,74.874 23.817,74.743 24.799,73.604 25.242,73.733 			"/>
		</g>
		<g>
			<polygon fill="#555A5A" points="27.645,71.581 26.664,72.72 26.22,72.591 25.771,72.462 26.745,71.319 27.195,71.45 			"/>
		</g>
		<g>
			<polygon fill="#555A5A" points="29.598,69.299 28.618,70.438 28.172,70.309 27.726,70.18 28.698,69.037 29.147,69.168 			"/>
		</g>
		<g>
			<polygon fill="#555A5A" points="31.545,67.014 30.571,68.156 30.123,68.026 29.679,67.898 30.646,66.759 31.098,66.887 			"/>
		</g>
		<g>
			<polygon fill="#555A5A" points="33.498,64.731 32.525,65.874 32.073,65.746 31.62,65.616 32.6,64.477 33.049,64.604 			"/>
		</g>
		<g>
			<polygon fill="#555A5A" points="35.446,62.454 34.479,63.592 34.025,63.463 33.573,63.335 34.554,62.195 34.999,62.324 			"/>
		</g>
		<g>
			<polygon fill="#555A5A" points="37.399,60.172 36.42,61.311 35.976,61.183 35.527,61.053 36.5,59.91 36.951,60.041 			"/>
		</g>
		<g>
			<polygon fill="#555A5A" points="39.354,57.89 38.373,59.029 37.927,58.9 37.48,58.771 38.455,57.628 38.903,57.759 			"/>
		</g>
		<g>
			<polygon fill="#555A5A" points="43.254,53.322 42.279,54.465 41.831,54.335 41.388,54.208 42.361,53.065 42.807,53.193 			"/>
		</g>
		<g>
			<polygon fill="#555A5A" points="45.207,51.041 44.234,52.184 43.783,52.053 43.335,51.922 44.309,50.787 44.757,50.913 			"/>
		</g>
		<g>
			<polygon fill="#555A5A" points="47.161,48.76 46.188,49.902 45.733,49.772 45.283,49.644 46.263,48.505 46.708,48.631 			"/>
		</g>
		<g>
			<polygon fill="#555A5A" points="49.108,46.481 48.129,47.62 47.683,47.491 47.236,47.362 48.209,46.219 48.659,46.351 			"/>
		</g>
		<g>
			<polygon fill="#555A5A" points="51.063,44.199 50.082,45.338 49.635,45.209 49.189,45.08 50.163,43.938 50.61,44.068 			"/>
		</g>
		<g>
			<polygon fill="#555A5A" points="53.009,41.914 52.035,43.057 51.586,42.927 51.143,42.798 52.116,41.656 52.563,41.785 			"/>
		</g>
		<g>
			<polygon fill="#555A5A" points="54.963,39.632 53.989,40.774 53.539,40.644 53.09,40.513 54.07,39.374 54.515,39.503 			"/>
		</g>
		<g>
			<polygon fill="#555A5A" points="56.916,37.351 55.943,38.493 55.49,38.361 55.044,38.231 56.023,37.092 56.467,37.22 			"/>
		</g>
		<g>
			<polygon fill="#555A5A" points="58.87,35.069 57.89,36.208 57.441,36.081 56.99,35.953 57.971,34.814 58.416,34.94 			"/>
		</g>
		<g>
			<polygon fill="#555A5A" points="60.817,32.791 59.844,33.926 59.393,33.798 58.945,33.672 59.918,32.528 60.366,32.659 			"/>
		</g>
		<g>
			<polygon fill="#555A5A" points="64.719,28.223 63.745,29.366 63.295,29.236 62.852,29.108 63.825,27.965 64.271,28.094 			"/>
		</g>
		<g>
			<polygon fill="#555A5A" points="66.672,25.941 65.698,27.084 65.246,26.952 64.799,26.822 65.779,25.684 66.222,25.812 			"/>
		</g>
		<g>
			<polygon fill="#555A5A" points="68.625,23.66 67.651,24.803 67.198,24.67 66.753,24.541 67.732,23.401 68.174,23.529 			"/>
		</g>
		<g>
			<polygon fill="#555A5A" points="70.578,21.378 69.599,22.517 69.15,22.387 68.706,22.259 69.674,21.12 70.125,21.248 			"/>
		</g>
		<g>
			<polygon fill="#555A5A" points="72.814,19.561 72.593,19.819 72.373,20.077 71.824,19.922 71.552,20.235 71.101,20.107 
				70.654,19.981 71.368,19.145 			"/>
		</g>
		<g>
			<polygon fill="#555A5A" points="166.267,46.829 166.049,47.089 164.009,46.499 164.229,46.241 164.451,45.983 166.484,46.569 			
				"/>
		</g>
		<g>
			<polygon fill="#555A5A" points="133.906,37.173 133.686,37.434 133.463,37.696 131.424,37.106 131.648,36.847 131.873,36.587 			
				"/>
		</g>
		<g>
			<polygon fill="#555A5A" points="121.687,33.653 121.466,33.911 121.244,34.169 119.211,33.583 119.432,33.325 119.653,33.066 			
				"/>
		</g>
		<g>
			<polygon fill="#555A5A" points="109.474,30.129 109.249,30.389 109.024,30.648 106.991,30.063 107.212,29.801 107.434,29.539 			
				"/>
		</g>
		<g>
			<polygon fill="#555A5A" points="105.4,28.953 105.176,29.214 104.951,29.473 102.918,28.887 103.141,28.627 103.36,28.371 			"/>
		</g>
		<g>
			<polygon fill="#555A5A" points="101.32,27.781 101.103,28.04 100.885,28.301 98.845,27.711 99.066,27.453 99.287,27.194 			"/>
		</g>
		<g>
			<polygon fill="#555A5A" points="97.254,26.608 97.033,26.866 96.812,27.124 94.771,26.535 94.992,26.278 95.214,26.019 			"/>
		</g>
		<g>
			<polygon fill="#555A5A" points="93.181,25.433 92.959,25.691 92.738,25.949 90.705,25.362 90.922,25.104 91.141,24.843 			"/>
		</g>
		<g>
			<polygon fill="#555A5A" points="89.107,24.257 88.883,24.517 88.658,24.776 86.625,24.19 86.85,23.93 87.074,23.67 			"/>
		</g>
		<g>
			<polygon fill="#555A5A" points="85.034,23.081 84.813,23.343 84.592,23.604 82.552,23.015 82.776,22.756 83.001,22.495 			"/>
		</g>
		<g>
			<polygon fill="#555A5A" points="80.968,21.909 80.742,22.169 80.519,22.429 78.479,21.839 78.7,21.58 78.921,21.322 			"/>
		</g>
		<g>
			<polygon fill="#555A5A" points="76.889,20.736 76.667,20.994 76.445,21.252 74.412,20.667 74.631,20.407 74.849,20.146 			"/>
		</g>
		<g>
			<polygon fill="#555A5A" points="101.925,127.135 100.951,128.278 100.501,128.148 100.059,128.02 101.032,126.877 
				101.479,127.006 			"/>
		</g>
		<g>
			<polygon fill="#555A5A" points="103.878,124.854 102.904,125.996 102.454,125.865 102.006,125.734 102.986,124.596 
				103.43,124.724 			"/>
		</g>
		<g>
			<polygon fill="#555A5A" points="105.832,122.572 104.858,123.715 104.406,123.583 103.959,123.453 104.939,122.313 
				105.382,122.441 			"/>
		</g>
		<g>
			<polygon fill="#555A5A" points="107.785,120.29 106.806,121.429 106.359,121.3 105.913,121.171 106.887,120.028 107.335,120.159 
							"/>
		</g>
		<g>
			<polygon fill="#555A5A" points="109.739,118.008 108.759,119.147 108.309,119.02 107.86,118.893 108.834,117.75 109.285,117.879 
							"/>
		</g>
		<g>
			<polygon fill="#555A5A" points="111.68,115.726 110.713,116.865 110.261,116.738 109.813,116.611 110.787,115.468 
				111.235,115.598 			"/>
		</g>
		<g>
			<polygon fill="#555A5A" points="113.634,113.445 112.66,114.587 112.211,114.457 111.761,114.326 112.741,113.187 
				113.188,113.315 			"/>
		</g>
		<g>
			<polygon fill="#555A5A" points="115.587,111.163 114.613,112.306 114.163,112.175 113.715,112.044 114.694,110.904 
				115.14,111.033 			"/>
		</g>
		<g>
			<polygon fill="#555A5A" points="117.541,108.881 116.566,110.023 116.115,109.893 115.669,109.762 116.648,108.623 
				117.092,108.751 			"/>
		</g>
		<g>
			<polygon fill="#555A5A" points="119.494,106.599 118.515,107.738 118.068,107.609 117.622,107.48 118.596,106.337 
				119.044,106.468 			"/>
		</g>
		<g>
			<polygon fill="#555A5A" points="121.448,104.317 120.468,105.456 120.021,105.327 119.575,105.199 120.543,104.06 
				120.994,104.188 			"/>
		</g>
		<g>
			<polygon fill="#555A5A" points="123.395,102.032 122.422,103.175 121.971,103.047 121.522,102.92 122.496,101.777 
				122.946,101.905 			"/>
		</g>
		<g>
			<polygon fill="#555A5A" points="125.342,99.754 124.375,100.893 123.923,100.764 123.47,100.635 124.45,99.496 124.897,99.625 
							"/>
		</g>
		<g>
			<polygon fill="#555A5A" points="127.296,97.472 126.322,98.615 125.873,98.484 125.424,98.353 126.403,97.214 126.849,97.343 			
				"/>
		</g>
		<g>
			<polygon fill="#555A5A" points="133.157,90.627 132.177,91.766 131.729,91.637 131.284,91.508 132.258,90.365 132.705,90.495 			
				"/>
		</g>
		<g>
			<polygon fill="#555A5A" points="135.104,88.341 134.131,89.484 133.682,89.354 133.238,89.226 134.205,88.087 134.656,88.215 			
				"/>
		</g>
		<g>
			<polygon fill="#555A5A" points="137.058,86.06 136.084,87.202 135.633,87.074 135.179,86.944 136.158,85.805 136.607,85.932 			
				"/>
		</g>
		<g>
			<polygon fill="#555A5A" points="139.005,83.781 138.031,84.924 137.582,84.794 137.133,84.662 138.112,83.523 138.559,83.652 			
				"/>
		</g>
		<g>
			<polygon fill="#555A5A" points="140.959,81.5 139.979,82.639 139.534,82.511 139.086,82.38 140.06,81.238 140.511,81.369 			"/>
		</g>
		<g>
			<polygon fill="#555A5A" points="142.912,79.218 141.933,80.357 141.487,80.228 141.039,80.099 142.013,78.956 142.463,79.087 			
				"/>
		</g>
		<g>
			<polygon fill="#555A5A" points="144.859,76.933 143.886,78.075 143.439,77.946 142.993,77.817 143.967,76.675 144.415,76.804 			
				"/>
		</g>
		<g>
			<polygon fill="#555A5A" points="146.813,74.65 145.84,75.794 145.392,75.663 144.94,75.532 145.921,74.393 146.367,74.522 			"/>
		</g>
		<g>
			<polygon fill="#555A5A" points="148.766,72.369 147.793,73.512 147.342,73.383 146.888,73.253 147.868,72.114 148.317,72.242 			
				"/>
		</g>
		<g>
			<polygon fill="#555A5A" points="150.714,70.091 149.746,71.23 149.293,71.101 148.842,70.972 149.821,69.833 150.268,69.962 			
				"/>
		</g>
		<g>
			<polygon fill="#555A5A" points="152.667,67.809 151.688,68.948 151.244,68.82 150.795,68.69 151.768,67.547 152.22,67.679 			"/>
		</g>
		<g>
			<polygon fill="#555A5A" points="154.621,65.527 153.641,66.666 153.195,66.538 152.749,66.408 153.722,65.266 154.172,65.396 			
				"/>
		</g>
		<g>
			<polygon fill="#555A5A" points="156.568,63.242 155.595,64.385 155.148,64.255 154.702,64.126 155.676,62.984 156.125,63.113 			
				"/>
		</g>
		<g>
			<polygon fill="#555A5A" points="158.521,60.96 157.549,62.103 157.101,61.972 156.649,61.841 157.629,60.702 158.076,60.831 			
				"/>
		</g>
		<g>
			<polygon fill="#555A5A" points="160.475,58.678 159.502,59.821 159.053,59.69 158.603,59.559 159.577,58.424 160.026,58.551 			
				"/>
		</g>
		<g>
			<polygon fill="#555A5A" points="162.43,56.396 161.449,57.535 161.004,57.41 160.551,57.281 161.53,56.142 161.979,56.269 			"/>
		</g>
		<g>
			<polygon fill="#555A5A" points="166.33,51.837 165.35,52.976 164.905,52.847 164.457,52.718 165.431,51.575 165.881,51.706 			
				"/>
		</g>
		<g>
			<polygon fill="#555A5A" points="168.277,49.551 167.303,50.694 166.857,50.564 166.41,50.436 167.385,49.293 167.834,49.423 			
				"/>
		</g>
		<g>
			<polygon fill="#CCCECE" points="26.327,95.327 24.999,96.883 16.03,94.299 17.364,92.747 			"/>
		</g>
		<g>
			<polygon fill="#CCCECE" points="31.644,89.108 30.315,90.664 21.354,88.077 22.688,86.524 			"/>
		</g>
		<g enable-background="new    ">
			<g>
				<polygon fill="#CCCDCD" points="85.289,26.387 83.961,27.943 74.993,25.359 76.32,23.804 				"/>
			</g>
			<g>
				<polygon fill="#CCCDCD" points="82.627,29.495 81.299,31.051 72.337,28.47 73.664,26.915 				"/>
			</g>
			<g>
				<polygon fill="#555A5A" points="62.771,30.509 61.791,31.647 61.343,31.518 60.898,31.39 61.872,30.247 62.318,30.377 				"/>
			</g>
			<g>
				<polygon fill="#555A5A" points="113.546,31.305 113.324,31.563 113.104,31.821 111.058,31.234 111.282,30.975 111.507,30.715 
									"/>
			</g>
			<g>
				<polygon fill="#555A5A" points="117.613,32.477 117.395,32.737 117.178,32.997 115.138,32.407 115.357,32.15 115.58,31.891 				
					"/>
			</g>
			<g>
				<polygon fill="#CCCDCD" points="79.972,32.606 78.638,34.166 69.676,31.578 71.003,30.022 				"/>
			</g>
			<g>
				<polygon fill="#555A5A" points="125.76,34.829 125.539,35.085 125.317,35.345 123.283,34.758 123.502,34.498 123.72,34.239 				
					"/>
			</g>
			<g>
				<polygon fill="#555A5A" points="129.839,36.001 129.614,36.261 129.391,36.521 127.351,35.931 127.572,35.672 127.793,35.415 
									"/>
			</g>
			<g>
				<polygon fill="#CCCDCD" points="77.303,35.717 75.976,37.272 67.014,34.685 68.348,33.133 				"/>
			</g>
			<g>
				<polygon fill="#555A5A" points="137.979,38.349 137.757,38.608 137.536,38.865 135.497,38.283 135.723,38.021 135.945,37.763 
									"/>
			</g>
			<g>
				<polygon fill="#555A5A" points="142.052,39.524 141.831,39.783 141.609,40.041 139.576,39.455 139.794,39.196 140.012,38.935 
									"/>
			</g>
			<g>
				<polygon fill="#CCCDCD" points="74.648,38.828 73.32,40.384 64.352,37.8 65.686,36.241 				"/>
			</g>
			<g>
				<polygon fill="#555A5A" points="146.125,40.701 145.904,40.958 145.683,41.217 143.643,40.627 143.863,40.369 144.086,40.111 
									"/>
			</g>
			<g>
				<polygon fill="#555A5A" points="150.191,41.873 149.975,42.131 149.756,42.393 147.716,41.803 147.938,41.544 148.158,41.287 
									"/>
			</g>
			<g>
				<polygon fill="#555A5A" points="154.271,43.045 154.047,43.305 153.822,43.565 151.789,42.979 152.013,42.719 152.232,42.463 
									"/>
			</g>
			<g>
				<polygon fill="#CCCDCD" points="71.993,41.939 70.658,43.491 61.69,40.908 63.024,39.355 				"/>
			</g>
			<g>
				<polygon fill="#555A5A" points="158.345,44.221 158.121,44.48 157.896,44.74 155.862,44.155 156.088,43.894 156.312,43.635 				
					"/>
			</g>
			<g>
				<polygon fill="#555A5A" points="162.418,45.396 162.197,45.655 161.976,45.913 159.936,45.33 160.158,45.067 160.378,44.807 
									"/>
			</g>
			<g>
				<polygon fill="#CCCDCD" points="69.331,45.047 68.003,46.603 59.035,44.019 60.363,42.463 				"/>
			</g>
			<g>
				<polygon fill="#555A5A" points="169.971,47.575 169.258,48.412 168.811,48.282 168.358,48.15 168.631,47.837 168.082,47.675 
					168.304,47.416 168.525,47.159 				"/>
			</g>
			<g>
				<polygon fill="#CCCDCD" points="66.67,48.162 65.336,49.714 56.379,47.13 57.707,45.574 				"/>
			</g>
			<g>
				<polygon fill="#B3EDD5" points="163.271,48.873 161.943,50.429 89.334,29.495 90.668,27.936 				"/>
			</g>
			<g>
				<polygon fill="#CCCECE" points="128.406,50.451 127.071,52.002 84.944,39.857 86.272,38.301 				"/>
			</g>
			<g>
				<polygon fill="#CCCECE" points="145.403,51.476 144.076,53.031 84.018,35.714 85.345,34.158 				"/>
			</g>
			<g>
				<polygon fill="#CCCDCD" points="64.008,51.27 62.68,52.825 53.718,50.237 55.045,48.682 				"/>
			</g>
			<g>
				<polygon fill="#CCCECE" points="125.737,53.562 124.41,55.118 85.872,44 87.199,42.445 				"/>
			</g>
			<g>
				<polygon fill="#555A5A" points="41.3,55.604 40.326,56.747 39.879,56.618 39.434,56.489 40.408,55.346 40.855,55.476 				"/>
			</g>
			<g>
				<polygon fill="#CCCDCD" points="58.69,57.488 57.363,59.044 48.395,56.459 49.722,54.904 				"/>
			</g>
			<g>
				<polygon fill="#CCCECE" points="137.425,60.809 136.091,62.361 83.203,47.111 84.537,45.56 				"/>
			</g>
			<g>
				<polygon fill="#CCCDCD" points="56.035,60.599 54.695,62.155 45.738,59.571 47.066,58.015 				"/>
			</g>
			<g>
				<polygon fill="#CCCECE" points="131.181,62.884 129.847,64.437 73.377,48.154 74.705,46.599 				"/>
			</g>
			<g>
				<polygon fill="#B3EDD5" points="117.766,62.892 116.432,64.443 70.715,51.262 72.049,49.71 				"/>
			</g>
			<g>
				<polygon fill="#CCCDCD" points="53.367,63.71 52.039,65.266 43.078,62.678 44.405,61.123 				"/>
			</g>
			<g>
				<polygon fill="#CCCDCD" points="50.712,66.821 49.378,68.374 40.416,65.793 41.75,64.234 				"/>
			</g>
			<g>
				<polygon fill="#CCCDCD" points="48.051,69.929 46.723,71.485 37.754,68.9 39.082,67.345 				"/>
			</g>
			<g>
				<polygon fill="#CCCECE" points="123.195,72.214 121.868,73.77 65.392,57.484 66.726,55.933 				"/>
			</g>
			<g>
				<polygon fill="#CCCDCD" points="45.395,73.041 44.061,74.592 35.099,72.012 36.426,70.457 				"/>
			</g>
			<g>
				<polygon fill="#CCCECE" points="42.284,76.668 40.957,78.223 31.988,75.639 33.328,74.083 				"/>
			</g>
			<g>
				<polygon fill="#CCCECE" points="104.463,78.44 103.136,79.996 64.591,68.882 65.918,67.326 				"/>
			</g>
			<g>
				<polygon fill="#CCCECE" points="39.629,79.779 38.301,81.334 29.333,78.75 30.66,77.195 				"/>
			</g>
			<g>
				<polygon fill="#CCCECE" points="36.967,82.886 35.64,84.441 26.671,81.857 28.006,80.306 				"/>
			</g>
			<g>
				<polygon fill="#CCCECE" points="34.306,86.001 32.978,87.557 24.016,84.969 25.344,83.413 				"/>
			</g>
			<g>
				<polygon fill="#CCCECE" points="109.899,87.766 108.565,89.318 55.685,74.072 57.012,72.517 				"/>
			</g>
			<g>
				<polygon fill="#CCCECE" points="128.694,89.307 127.367,90.862 61.929,71.99 63.263,70.438 				"/>
			</g>
			<g>
				<polygon fill="#CCCECE" points="123.378,95.526 122.044,97.085 49.435,76.144 50.769,74.592 				"/>
			</g>
			<g>
				<polygon fill="#CCCECE" points="101.472,97.612 100.145,99.168 43.675,82.886 45.002,81.331 				"/>
			</g>
			<g>
				<polygon fill="#CCCECE" points="21.003,101.55 19.676,103.105 10.713,100.517 12.048,98.966 				"/>
			</g>
			<g>
				<path fill="#FFFFFF" d="M99.526,129.289l-0.72,0.19l-0.549-0.162L96,128.993l-1.814-0.851l-2.26-0.324l-1.813-0.844l-2.258-0.33
					l-1.815-0.846l-2.259-0.329l-1.814-0.847l-2.256-0.327l-1.817-0.85l-2.258-0.325l-1.809-0.847l-2.266-0.329l-1.808-0.848
					l-2.263-0.326l-1.811-0.85l-2.262-0.325l-1.817-0.847l-2.256-0.327l-1.812-0.845l-2.263-0.33l-1.81-0.846l-2.261-0.328
					l-1.813-0.848l-2.258-0.326l-1.814-0.85l-2.26-0.325l-1.808-0.847l-2.269-0.328l-1.811-0.845l-2.259-0.329l-1.814-0.847
					l-2.256-0.327l-1.817-0.849l-2.257-0.326l-1.81-0.847l-2.266-0.329l-1.809-0.847l-2.262-0.327l-1.811-0.849l-2.259-0.324
					l-1.82-0.848l-2.256-0.328l-1.818-0.848L6.4,103.154l-1.812-0.846l-2.259-0.328L2,101.564l0.273-0.321l0.53-1.271l1.423-1.011
					l0.529-1.271L6.18,96.68l0.526-1.269l1.421-1.017l0.53-1.266l1.417-1.012l0.534-1.269l1.42-1.013l0.531-1.27l1.422-1.013
					l0.53-1.271l1.424-1.011L16.463,84l1.426-1.011l0.525-1.27l1.422-1.016l0.529-1.268l1.425-1.015l0.525-1.266l1.422-1.012
					l0.53-1.271l1.423-1.011l0.529-1.271l1.425-1.01l0.527-1.272l1.426-1.01l0.525-1.272l1.422-1.013l0.528-1.268l1.426-1.015
					l0.526-1.269l1.421-1.009l0.529-1.271l1.424-1.011l0.528-1.271l1.426-1.01l0.525-1.272l1.422-1.013l0.529-1.269l1.424-1.013
					l0.529-1.27l1.424-1.012l0.525-1.269l1.429-1.013l0.521-1.269l1.426-1.01l0.527-1.272l1.427-1.01l0.523-1.272l1.423-1.013
					l0.53-1.271l1.424-1.012l0.527-1.271l1.426-1.011l0.525-1.27l1.43-1.012l0.521-1.271l1.425-1.007l0.525-1.272l1.428-1.01
					l0.524-1.272l1.424-1.013l0.527-1.271l1.426-1.011l0.526-1.271l1.427-1.01l0.525-1.273l1.428-1.009l0.522-1.271l0.724-0.186
					l0.549,0.155l2.258,0.33l1.814,0.846L78.7,21.58l1.818,0.849l2.258,0.327l1.815,0.848l2.258,0.326l1.809,0.846l2.264,0.328
					l1.816,0.845l2.254,0.329l1.819,0.846l2.255,0.329l1.818,0.848l2.256,0.326l1.811,0.846l2.261,0.328l1.813,0.848l2.258,0.326
					l1.821,0.846l2.254,0.329l1.82,0.847l2.254,0.328l1.813,0.844l2.258,0.329l1.815,0.847l2.256,0.327l1.817,0.849l2.258,0.326
					l1.814,0.85l2.26,0.325l1.814,0.843l2.257,0.331l1.816,0.845l2.253,0.328l1.819,0.848l2.256,0.327l1.817,0.849l2.257,0.326
					l1.81,0.846l2.266,0.329l1.808,0.847l2.263,0.327l1.817,0.846l2.254,0.328l1.819,0.848l2.255,0.327l0.327,0.421l-0.272,0.313
					l-0.524,1.273l-1.423,1.013l-0.53,1.27l-1.423,1.012l-0.528,1.271L162.504,55l-0.525,1.27l-1.428,1.012l-0.524,1.27
					l-1.424,1.008l-0.526,1.271l-1.427,1.01l-0.524,1.272l-1.423,1.013l-0.53,1.27l-1.423,1.012l-0.529,1.271l-1.425,1.011
					l-0.527,1.272l-1.426,1.01l-0.523,1.27l-1.431,1.012l-0.521,1.269l-1.427,1.01l-0.525,1.272l-1.422,1.013l-0.53,1.271
					l-1.424,1.012l-0.528,1.27l-1.425,1.012l-0.527,1.271l-1.426,1.01l-0.525,1.27l-1.429,1.012l-0.522,1.271l-1.418,1.011
					l-0.533,1.269l-1.421,1.013l-0.531,1.27l-1.423,1.012l-0.528,1.27l-1.424,1.012l-0.528,1.271l-1.426,1.011l-0.526,1.271
					l-1.428,1.01l-0.523,1.271l-1.424,1.015l-0.528,1.268l-1.419,1.01l-0.531,1.27l-1.422,1.012l-0.53,1.271l-1.423,1.01
					l-0.529,1.271l-1.425,1.011l-0.527,1.271l-1.426,1.011l-0.526,1.271l-1.422,1.013l-0.528,1.268l-1.425,1.014l-0.525,1.267
					l-1.422,1.012l-0.531,1.271l-1.423,1.012l-0.529,1.271l-1.424,1.011l-0.527,1.272l-1.42,1.014L99.526,129.289z M163.271,48.873
					L90.668,27.936l-1.334,1.56l72.609,20.934L163.271,48.873 M49.435,76.144l72.609,20.941l1.334-1.559L50.769,74.592
					L49.435,76.144 M134.012,83.089L64.991,63.183l-1.328,1.556l69.015,19.902L134.012,83.089 M128.694,89.307L63.263,70.438
					L61.93,71.99l65.438,18.873L128.694,89.307 M145.403,51.476L85.345,34.158l-1.327,1.556l60.059,17.317L145.403,51.476
					 M43.675,82.886l56.47,16.282l1.327-1.556l-56.47-16.282L43.675,82.886 M131.181,62.884L74.705,46.599l-1.328,1.555
					l56.47,16.282L131.181,62.884 M65.392,57.484l56.477,16.285l1.327-1.555l-56.47-16.282L65.392,57.484 M86.673,32.603
					l56.476,16.285l1.327-1.556L88.007,31.051L86.673,32.603 M109.899,87.766l-52.888-15.25l-1.327,1.556l52.881,15.246
					L109.899,87.766 M137.425,60.809L84.537,45.56l-1.334,1.552l52.888,15.25L137.425,60.809 M117.766,62.892L72.049,49.71
					l-1.334,1.551l45.717,13.182L117.766,62.892 M128.406,50.451l-42.134-12.15l-1.328,1.556l42.127,12.146L128.406,50.451
					 M65.918,67.326l-1.327,1.556l38.545,11.114l1.327-1.556L65.918,67.326 M85.872,44l38.538,11.117l1.328-1.556L87.199,42.445
					L85.872,44 M37.754,68.9l8.969,2.584l1.328-1.556l-8.969-2.584L37.754,68.9 M64.352,37.8l8.969,2.584l1.328-1.555l-8.963-2.588
					L64.352,37.8 M69.676,31.578l8.962,2.588l1.334-1.559l-8.969-2.584L69.676,31.578 M59.035,44.019l8.969,2.584l1.327-1.556
					l-8.968-2.584L59.035,44.019 M74.993,25.359l8.968,2.583l1.328-1.556l-8.969-2.583L74.993,25.359 M29.333,78.75l8.968,2.583
					l1.328-1.555l-8.969-2.584L29.333,78.75 M48.395,56.459l8.969,2.584l1.327-1.556l-8.969-2.584L48.395,56.459 M18.692,91.191
					l8.968,2.584l1.328-1.556l-8.968-2.584L18.692,91.191 M45.738,59.571l8.957,2.584l1.34-1.556l-8.969-2.584L45.738,59.571
					 M31.988,75.639l8.969,2.584l1.327-1.555l-8.956-2.584L31.988,75.639 M72.337,28.47l8.962,2.581l1.328-1.556l-8.963-2.581
					L72.337,28.47 M17.364,92.747l-1.334,1.552l8.969,2.584l1.328-1.556L17.364,92.747 M26.671,81.857l8.969,2.584l1.327-1.555
					l-8.961-2.581L26.671,81.857 M40.416,65.793l8.962,2.58l1.334-1.552l-8.962-2.587L40.416,65.793 M61.69,40.908l8.968,2.583
					l1.335-1.552l-8.969-2.584L61.69,40.908 M35.099,72.012l8.962,2.581l1.334-1.552l-8.969-2.584L35.099,72.012 M51.057,53.353
					l8.962,2.58l1.334-1.552l-8.969-2.584L51.057,53.353 M24.016,84.969l8.962,2.588l1.328-1.556l-8.962-2.588L24.016,84.969
					 M53.718,50.237l8.962,2.588l1.328-1.556l-8.963-2.588L53.718,50.237 M14.703,95.854l-1.328,1.556l8.963,2.588l1.327-1.556
					L14.703,95.854 M43.078,62.678l8.961,2.587l1.328-1.555l-8.962-2.587L43.078,62.678 M21.354,88.077l8.963,2.587l1.327-1.556
					l-8.956-2.584L21.354,88.077 M56.379,47.13l8.957,2.584l1.334-1.552l-8.962-2.588L56.379,47.13 M67.014,34.685l8.962,2.587
					l1.327-1.555l-8.955-2.584L67.014,34.685 M10.713,100.517l8.963,2.588l1.327-1.555l-8.955-2.584L10.713,100.517"/>
			</g>
			<g>
				<polygon fill="#CCCECE" points="144.476,47.332 143.148,48.888 86.672,32.603 88.007,31.051 				"/>
			</g>
			<g>
				<polygon fill="#555A5A" points="164.376,54.118 163.402,55.254 162.955,55.127 162.504,55 163.478,53.856 163.93,53.988 				"/>
			</g>
			<g>
				<polygon fill="#CCCDCD" points="61.353,54.381 60.018,55.933 51.057,53.353 52.384,51.797 				"/>
			</g>
			<g>
				<polygon fill="#CCCECE" points="134.012,83.088 132.678,84.641 63.663,64.739 64.991,63.183 				"/>
			</g>
			<g>
				<polygon fill="#555A5A" points="131.203,92.908 130.224,94.048 129.777,93.918 129.33,93.79 130.304,92.646 130.753,92.777 				
					"/>
			</g>
			<g>
				<polygon fill="#CCCECE" points="28.988,92.22 27.66,93.775 18.692,91.191 20.02,89.636 				"/>
			</g>
			<g>
				<polygon fill="#555A5A" points="129.25,95.19 128.27,96.329 127.826,96.201 127.378,96.071 128.351,94.929 128.801,95.06 				
					"/>
			</g>
			<g>
				<polygon fill="#CCCECE" points="23.665,98.442 22.338,99.998 13.375,97.41 14.703,95.854 				"/>
			</g>
			<g>
				<polygon fill="#555A5A" points="10.695,104.071 10.474,104.329 10.253,104.587 8.22,104.001 8.438,103.742 8.655,103.481 				
					"/>
			</g>
			<g>
				<polygon fill="#555A5A" points="14.774,105.243 14.55,105.505 14.326,105.763 12.286,105.173 12.507,104.916 12.729,104.657 
									"/>
			</g>
		</g>
	</g>
</g>
<g opacity="0.3">
	<g>
		<g>
			<path fill="#F59619" d="M107.623,57.117c8.926,5.153,8.967,13.532,0.104,18.682c-8.867,5.153-23.332,5.157-32.258,0.004
				s-8.974-13.536-0.105-18.689C84.226,51.963,98.697,51.963,107.623,57.117z M77.582,74.575c7.751,4.475,20.32,4.471,28.021-0.003
				c7.7-4.476,7.659-11.752-0.092-16.227s-20.313-4.475-28.014,0C69.797,62.819,69.831,70.1,77.582,74.575"/>
		</g>
	</g>
</g>
<g opacity="0.3">
	<g>
		<g>
			<path fill="#F59619" d="M138.403,53.049c8.92,5.149,8.966,13.532,0.105,18.682c-8.868,5.153-23.339,5.153-32.259,0.004
				c-8.926-5.153-8.973-13.536-0.105-18.689C115.006,47.896,129.478,47.896,138.403,53.049z M108.362,70.507
				c7.744,4.471,20.319,4.471,28.021-0.004c7.7-4.476,7.652-11.755-0.092-16.227c-7.751-4.475-20.319-4.479-28.021-0.004
				C100.57,58.748,100.611,66.032,108.362,70.507"/>
		</g>
	</g>
</g>
<g>
	<g enable-background="new    ">
		<g>
			<polygon fill="#555A5A" points="63.335,160.79 147.91,111.64 147.904,113.746 63.329,162.896 			"/>
		</g>
		<g>
			<path fill="#FFFFFF" stroke="#555A5A" stroke-miterlimit="10" d="M11.083,119.533l84.575-49.15
				c0.557-0.114,11.134-2.28,32.535,10.076c9.986,5.766,14.422,16.229,14.655,16.78l-84.575,49.15
				c-0.234-0.551-4.67-11.014-14.655-16.779C22.217,117.253,11.64,119.419,11.083,119.533z"/>
		</g>
		<g>
			<polygon fill="#FFFFFF" stroke="#555A5A" stroke-miterlimit="10" points="105.869,174.294 190.445,125.145 192.859,137.591 
				108.283,186.741 			"/>
		</g>
		<g>
			<polygon fill="none" stroke="#555A5A" stroke-miterlimit="10" points="105.869,174.294 190.445,125.145 192.859,137.591 
				108.283,186.741 			"/>
		</g>
		<path fill="#FFFFFF" stroke="#555A5A" stroke-miterlimit="10" d="M159.996,98.622c-8.741-5.047-13.246-4.333-15.402-3.08
			l-84.576,49.15c2.156-1.253,6.662-1.967,15.402,3.08c17.322,10,29.793,25.697,30.449,26.522l84.576-49.15
			C189.788,124.318,177.317,108.623,159.996,98.622z"/>
		<g>
			<path fill="#FFFFFF" stroke="#555A5A" stroke-miterlimit="10" d="M75.42,147.772c17.322,10,29.793,25.697,30.449,26.522
				l2.414,12.446L63.335,160.79l-0.006,2.105l-10.394-6.001l0.006-2.106L8.6,129.188l2.483-9.655
				c0.557-0.114,11.134-2.28,32.535,10.076c9.985,5.765,14.421,16.229,14.655,16.779C58.447,146.063,61.764,139.887,75.42,147.772z"
				/>
		</g>
		<g>
			<path fill="none" stroke="#555A5A" stroke-miterlimit="10" d="M75.42,147.772c17.322,10,29.793,25.697,30.449,26.522
				l2.414,12.446L63.335,160.79l-0.006,2.105l-10.394-6.001l0.006-2.106L8.6,129.188l2.483-9.655
				c0.557-0.114,11.134-2.28,32.535,10.076c9.985,5.765,14.421,16.229,14.655,16.779C58.447,146.063,61.764,139.887,75.42,147.772z"
				/>
		</g>
		<g>
			<polyline fill="none" stroke="#00C473" stroke-width="4" stroke-linecap="round" stroke-miterlimit="10" points="8.6,129.188 
				52.941,154.789 52.936,156.895 63.329,162.896 63.335,160.79 108.283,186.741 192.859,137.591 			"/>
		</g>
	</g>
</g>
<g opacity="0.5">
	<g enable-background="new    ">
		<g enable-background="new    ">
			<defs>
				<path id="SVGID_37_" enable-background="new    " d="M11.081,119.531l84.575-49.15c0.557-0.114,11.134-2.28,32.535,10.076
					c9.992,5.769,14.422,16.229,14.654,16.779l-84.574,49.15c-0.234-0.55-4.663-11.01-14.655-16.779
					C22.215,117.251,11.638,119.417,11.081,119.531z"/>
			</defs>
			<clipPath id="SVGID_1_">
				<use xlink:href="#SVGID_37_"  overflow="visible"/>
			</clipPath>
			<g clip-path="url(#SVGID_1_)">
				<path fill="#555A5A" d="M22.391,113.809c-1.08,0.048-1.677,0.17-1.798,0.195l2.118-1.231c0.122-0.025,0.719-0.147,1.798-0.195
					L22.391,113.809"/>
				<path fill="#555A5A" d="M26.621,111.35c-1.08,0.048-1.676,0.171-1.797,0.195l2.111-1.228c0.121-0.024,0.718-0.147,1.798-0.195
					L26.621,111.35"/>
				<path fill="#555A5A" d="M30.852,108.891c-1.079,0.048-1.676,0.17-1.797,0.195l2.111-1.227c0.122-0.025,0.719-0.147,1.798-0.195
					L30.852,108.891"/>
				<path fill="#555A5A" d="M35.076,106.436c-1.08,0.048-1.676,0.17-1.797,0.195l2.119-1.231c0.121-0.025,0.717-0.147,1.797-0.195
					L35.076,106.436"/>
				<path fill="#555A5A" d="M39.307,103.978c-1.079,0.048-1.676,0.17-1.797,0.195l2.112-1.228c0.121-0.025,0.718-0.147,1.798-0.195
					L39.307,103.978"/>
				<path fill="#555A5A" d="M43.538,101.519c-1.079,0.048-1.676,0.17-1.797,0.195l2.112-1.228c0.121-0.025,0.717-0.147,1.797-0.195
					L43.538,101.519"/>
				<path fill="#555A5A" d="M47.763,99.063c-1.08,0.048-1.677,0.17-1.798,0.195l2.119-1.231c0.121-0.025,0.718-0.147,1.797-0.195
					L47.763,99.063"/>
				<path fill="#555A5A" d="M51.994,96.605c-1.08,0.048-1.677,0.17-1.798,0.195l2.112-1.228c0.121-0.025,0.717-0.147,1.797-0.195
					L51.994,96.605"/>
				<path fill="#555A5A" d="M56.225,94.146c-1.08,0.048-1.676,0.17-1.797,0.195l2.111-1.228c0.121-0.025,0.718-0.147,1.797-0.195
					L56.225,94.146"/>
				<path fill="#555A5A" d="M60.449,91.691c-1.08,0.048-1.676,0.17-1.797,0.195l2.118-1.231c0.121-0.025,0.718-0.147,1.798-0.195
					L60.449,91.691"/>
				<path fill="#555A5A" d="M64.68,89.232c-1.08,0.048-1.676,0.17-1.797,0.195l2.111-1.228c0.122-0.025,0.719-0.147,1.798-0.195
					L64.68,89.232"/>
				<path fill="#555A5A" d="M68.911,86.773c-1.08,0.048-1.677,0.17-1.798,0.195l2.112-1.228c0.121-0.024,0.718-0.147,1.798-0.195
					L68.911,86.773"/>
				<path fill="#555A5A" d="M73.135,84.318c-1.079,0.048-1.676,0.171-1.797,0.195l2.119-1.231c0.121-0.024,0.717-0.146,1.797-0.195
					L73.135,84.318"/>
				<path fill="#555A5A" d="M77.366,81.86c-1.08,0.048-1.677,0.17-1.798,0.195l2.113-1.228c0.121-0.025,0.717-0.147,1.797-0.195
					L77.366,81.86"/>
				<path fill="#555A5A" d="M81.598,79.401c-1.08,0.048-1.676,0.17-1.798,0.195l2.112-1.227c0.121-0.025,0.717-0.147,1.797-0.195
					L81.598,79.401"/>
				<path fill="#555A5A" d="M85.822,76.946c-1.08,0.048-1.677,0.17-1.798,0.195l2.118-1.231c0.122-0.025,0.719-0.147,1.798-0.195
					L85.822,76.946"/>
				<path opacity="0.302" fill="#555A5A" d="M42.921,116.722c-6.342-2.597-11.161-3.629-14.503-3.992l-2.119,1.231
					c3.342,0.362,8.162,1.395,14.503,3.992L42.921,116.722"/>
				<path opacity="0.302" fill="#555A5A" d="M47.145,114.267c-6.341-2.597-11.16-3.629-14.502-3.992l-2.113,1.228
					c3.342,0.362,8.162,1.395,14.504,3.992L47.145,114.267"/>
				<path opacity="0.302" fill="#555A5A" d="M51.376,111.808c-6.342-2.597-11.161-3.629-14.503-3.992l-2.111,1.228
					c3.341,0.362,8.16,1.395,14.502,3.992L51.376,111.808"/>
				<path opacity="0.302" fill="#555A5A" d="M55.607,109.35c-6.342-2.597-11.162-3.629-14.503-3.992l-2.119,1.231
					c3.342,0.362,8.161,1.395,14.503,3.992L55.607,109.35"/>
				<path opacity="0.302" fill="#555A5A" d="M59.831,106.895c-6.341-2.597-11.161-3.629-14.503-3.992l-2.111,1.228
					c3.341,0.362,8.16,1.395,14.502,3.992L59.831,106.895"/>
				<path opacity="0.302" fill="#555A5A" d="M64.063,104.436c-6.342-2.597-11.162-3.629-14.503-3.991l-2.112,1.227
					c3.342,0.362,8.162,1.395,14.503,3.992L64.063,104.436"/>
				<path opacity="0.302" fill="#555A5A" d="M68.293,101.977c-6.341-2.597-11.16-3.629-14.502-3.992l-2.119,1.231
					c3.342,0.362,8.161,1.395,14.502,3.991L68.293,101.977"/>
				<path opacity="0.302" fill="#555A5A" d="M72.518,99.522c-6.342-2.597-11.161-3.629-14.503-3.992l-2.112,1.228
					c3.342,0.362,8.162,1.395,14.503,3.992L72.518,99.522"/>
				<path opacity="0.302" fill="#555A5A" d="M76.748,97.063c-6.341-2.597-11.16-3.629-14.502-3.992l-2.112,1.227
					c3.341,0.362,8.161,1.395,14.503,3.992L76.748,97.063"/>
				<path opacity="0.302" fill="#555A5A" d="M80.979,94.604c-6.341-2.597-11.161-3.629-14.503-3.992l-2.119,1.231
					c3.342,0.362,8.162,1.395,14.504,3.992L80.979,94.604"/>
				<path opacity="0.302" fill="#555A5A" d="M85.204,92.149c-6.342-2.597-11.161-3.629-14.503-3.992l-2.112,1.228
					c3.342,0.362,8.161,1.395,14.503,3.992L85.204,92.149"/>
				<path fill="#555A5A" d="M89.435,89.691c-6.341-2.597-11.161-3.629-14.503-3.992l-2.111,1.227
					c3.342,0.363,8.161,1.395,14.502,3.992L89.435,89.691"/>
				<path opacity="0.302" fill="#555A5A" d="M93.666,87.232c-6.342-2.597-11.161-3.629-14.503-3.992l-2.118,1.231
					c3.341,0.362,8.16,1.395,14.502,3.992L93.666,87.232"/>
				<path opacity="0.302" fill="#555A5A" d="M97.891,84.777c-6.342-2.597-11.162-3.629-14.503-3.992l-2.112,1.228
					c3.342,0.362,8.161,1.395,14.502,3.992L97.891,84.777"/>
				<path opacity="0.302" fill="#555A5A" d="M102.121,82.318c-6.342-2.597-11.161-3.629-14.503-3.992l-2.112,1.227
					c3.342,0.363,8.162,1.395,14.504,3.992L102.121,82.318"/>
				<path opacity="0.302" fill="#555A5A" d="M106.352,79.859c-6.341-2.597-11.16-3.629-14.502-3.992l-2.119,1.231
					c3.342,0.362,8.162,1.395,14.503,3.992L106.352,79.859"/>
				<path fill="#555A5A" d="M69.832,139.466c-0.613-1.405-4.818-10.52-13.671-16.067l-2.118,1.231
					c8.852,5.547,13.057,14.663,13.67,16.067L69.832,139.466"/>
				<path fill="#555A5A" d="M74.057,137.012c-0.613-1.405-4.818-10.52-13.671-16.067l-2.112,1.228
					c8.852,5.547,13.057,14.662,13.67,16.067L74.057,137.012"/>
				<path fill="#555A5A" d="M78.287,134.553c-0.613-1.405-4.818-10.52-13.671-16.067l-2.112,1.228
					c8.853,5.547,13.059,14.663,13.671,16.067L78.287,134.553"/>
				<path fill="#555A5A" d="M82.518,132.094c-0.613-1.405-4.818-10.52-13.67-16.067l-2.119,1.231
					c8.853,5.548,13.058,14.663,13.671,16.067L82.518,132.094"/>
				<path fill="#555A5A" d="M86.742,129.639c-0.613-1.405-4.818-10.52-13.67-16.067l-2.113,1.228
					c8.853,5.547,13.059,14.663,13.672,16.067L86.742,129.639"/>
				<path fill="#555A5A" d="M90.974,127.18c-0.613-1.405-4.819-10.52-13.671-16.067l-2.111,1.227
					c8.852,5.547,13.057,14.663,13.67,16.067L90.974,127.18"/>
				<path fill="#555A5A" d="M95.205,124.722c-0.613-1.405-4.818-10.52-13.671-16.067l-2.119,1.231
					c8.853,5.548,13.058,14.663,13.671,16.067L95.205,124.722"/>
				<path fill="#555A5A" d="M99.429,122.267c-0.613-1.405-4.818-10.52-13.671-16.067l-2.111,1.228
					c8.852,5.547,13.057,14.663,13.67,16.067L99.429,122.267"/>
				<path fill="#555A5A" d="M103.66,119.808c-0.613-1.405-4.818-10.52-13.671-16.067l-2.112,1.227
					c8.853,5.547,13.058,14.663,13.671,16.067L103.66,119.808"/>
				<path fill="#555A5A" d="M107.891,117.349c-0.613-1.405-4.818-10.52-13.67-16.067l-2.119,1.231
					c8.852,5.547,13.057,14.662,13.67,16.067L107.891,117.349"/>
				<path fill="#555A5A" d="M112.115,114.894c-0.613-1.405-4.818-10.52-13.671-16.067l-2.112,1.228
					c8.853,5.547,13.058,14.663,13.671,16.067L112.115,114.894"/>
				<path fill="#555A5A" d="M116.346,112.436c-0.613-1.405-4.818-10.52-13.67-16.067l-2.112,1.227
					c8.853,5.547,13.058,14.663,13.671,16.067L116.346,112.436"/>
				<path fill="#555A5A" d="M120.577,109.977c-0.613-1.405-4.818-10.52-13.671-16.067l-2.119,1.231
					c8.853,5.547,13.059,14.662,13.672,16.067L120.577,109.977"/>
				<path fill="#555A5A" d="M124.802,107.521c-0.613-1.405-4.819-10.52-13.671-16.067l-2.112,1.228
					c8.853,5.548,13.058,14.663,13.671,16.067L124.802,107.521"/>
				<path fill="#555A5A" d="M129.032,105.063c-0.613-1.405-4.818-10.52-13.671-16.067l-2.111,1.227
					c8.852,5.548,13.057,14.663,13.67,16.067L129.032,105.063"/>
				<path fill="#555A5A" d="M133.264,102.604c-0.613-1.405-4.818-10.52-13.671-16.067l-2.118,1.231
					c8.852,5.547,13.057,14.663,13.67,16.067L133.264,102.604"/>
			</g>
		</g>
		<g enable-background="new    ">
			<defs>
				<path id="SVGID_39_" enable-background="new    " d="M60.016,144.69l84.576-49.15c2.156-1.253,6.66-1.967,15.402,3.08
					l-84.575,49.15C66.678,142.723,62.172,143.438,60.016,144.69z"/>
			</defs>
			<clipPath id="SVGID_2_">
				<use xlink:href="#SVGID_39_"  overflow="visible"/>
			</clipPath>
			<g clip-path="url(#SVGID_2_)">
				<path fill="#555A5A" d="M78.317,140.366c-5.333-2.078-8.397-1.432-10.062-0.464l2.119-1.231
					c1.664-0.967,4.729-1.613,10.061,0.464L78.317,140.366"/>
				<path fill="#555A5A" d="M82.548,137.907c-5.333-2.078-8.397-1.431-10.062-0.464l2.112-1.228
					c1.665-0.967,4.729-1.614,10.062,0.464L82.548,137.907"/>
				<path fill="#555A5A" d="M86.779,135.448c-5.332-2.077-8.396-1.431-10.062-0.464l2.112-1.228
					c1.664-0.967,4.729-1.613,10.061,0.464L86.779,135.448"/>
				<path fill="#555A5A" d="M91.004,132.994c-5.333-2.078-8.397-1.432-10.063-0.464l2.119-1.231
					c1.665-0.967,4.729-1.613,10.063,0.464L91.004,132.994"/>
				<path fill="#555A5A" d="M95.234,130.535c-5.332-2.078-8.396-1.431-10.062-0.464l2.112-1.228
					c1.664-0.967,4.729-1.614,10.062,0.464L95.234,130.535"/>
				<path fill="#555A5A" d="M99.466,128.076c-5.333-2.078-8.397-1.432-10.062-0.464l2.111-1.227
					c1.665-0.968,4.729-1.614,10.063,0.464L99.466,128.076"/>
				<path fill="#555A5A" d="M103.689,125.621c-5.332-2.078-8.396-1.432-10.061-0.464l2.118-1.231
					c1.665-0.967,4.729-1.614,10.062,0.464L103.689,125.621"/>
				<path fill="#555A5A" d="M107.921,123.162c-5.333-2.077-8.397-1.431-10.062-0.464l2.112-1.228
					c1.665-0.967,4.729-1.613,10.062,0.464L107.921,123.162"/>
				<path fill="#555A5A" d="M112.152,120.704c-5.333-2.078-8.397-1.432-10.063-0.464l2.112-1.227
					c1.665-0.967,4.729-1.614,10.062,0.464L112.152,120.704"/>
				<path fill="#555A5A" d="M116.376,118.249c-5.333-2.078-8.397-1.431-10.062-0.464l2.119-1.231
					c1.664-0.967,4.729-1.614,10.062,0.464L116.376,118.249"/>
				<path fill="#555A5A" d="M120.607,115.79c-5.333-2.078-8.397-1.432-10.063-0.464l2.113-1.228
					c1.664-0.967,4.729-1.613,10.061,0.464L120.607,115.79"/>
				<path fill="#555A5A" d="M124.838,113.331c-5.332-2.078-8.396-1.432-10.061-0.464l2.111-1.227
					c1.664-0.967,4.729-1.614,10.062,0.464L124.838,113.331"/>
				<path fill="#555A5A" d="M129.063,110.876c-5.332-2.078-8.396-1.431-10.062-0.464l2.118-1.231
					c1.665-0.967,4.729-1.613,10.063,0.464L129.063,110.876"/>
				<path fill="#555A5A" d="M133.293,108.417c-5.332-2.078-8.396-1.432-10.061-0.464l2.111-1.228
					c1.665-0.967,4.729-1.613,10.063,0.464L133.293,108.417"/>
				<path fill="#555A5A" d="M137.524,105.958c-5.333-2.078-8.397-1.431-10.062-0.464l2.112-1.228
					c1.664-0.967,4.729-1.614,10.062,0.464L137.524,105.958"/>
				<path fill="#555A5A" d="M141.749,103.503c-5.333-2.078-8.397-1.431-10.062-0.464l2.119-1.231
					c1.664-0.967,4.729-1.613,10.061,0.464L141.749,103.503"/>
			</g>
		</g>
		<g enable-background="new    ">
			<defs>
				<path id="SVGID_41_" enable-background="new    " d="M75.419,147.77l84.575-49.15c17.328,10.004,29.793,25.697,30.449,26.523
					l-84.576,49.15C105.211,173.467,92.747,157.774,75.419,147.77z"/>
			</defs>
			<clipPath id="SVGID_3_">
				<use xlink:href="#SVGID_41_"  overflow="visible"/>
			</clipPath>
			<g clip-path="url(#SVGID_3_)">
				<path opacity="0.302" fill="#555A5A" d="M99.525,153.563c-4.391-3.779-9.55-7.67-15.23-10.95l2.118-1.231
					c5.682,3.28,10.84,7.172,15.231,10.95L99.525,153.563"/>
				<path opacity="0.302" fill="#555A5A" d="M118.065,165.563c-3.235-3.883-14.573-16.768-29.54-25.409l2.112-1.228
					c14.967,8.641,26.306,21.526,29.54,25.409L118.065,165.563"/>
				<path opacity="0.302" fill="#555A5A" d="M119.289,159.657c-5.072-5.584-14.66-15.108-26.533-21.962l2.113-1.227
					c11.871,6.854,21.46,16.378,26.533,21.962L119.289,159.657"/>
				<path opacity="0.302" fill="#555A5A" d="M112.211,146.19c-4.391-3.779-9.549-7.67-15.23-10.95l2.119-1.231
					c5.682,3.28,10.84,7.172,15.23,10.95L112.211,146.19"/>
				<path opacity="0.302" fill="#555A5A" d="M130.752,158.19c-3.234-3.883-14.573-16.768-29.541-25.409l2.113-1.228
					c14.967,8.641,26.305,21.525,29.54,25.409L130.752,158.19"/>
				<path opacity="0.302" fill="#555A5A" d="M120.674,141.272c-4.391-3.779-9.55-7.67-15.23-10.95l2.111-1.228
					c5.682,3.28,10.84,7.172,15.23,10.95L120.674,141.272"/>
				<path opacity="0.302" fill="#555A5A" d="M133.988,147.456c-5.402-5.651-13.999-13.629-24.321-19.589l2.119-1.231
					c10.322,5.96,18.919,13.938,24.321,19.589L133.988,147.456"/>
				<path opacity="0.302" fill="#555A5A" d="M135.582,142.317c-5.379-5.315-12.907-11.841-21.684-16.908l2.111-1.228
					c8.777,5.067,16.307,11.593,21.686,16.908L135.582,142.317"/>
				<path opacity="0.302" fill="#555A5A" d="M133.359,133.9c-4.391-3.779-9.549-7.67-15.23-10.95l2.112-1.228
					c5.681,3.28,10.84,7.172,15.23,10.95L133.359,133.9"/>
				<path opacity="0.302" fill="#555A5A" d="M151.894,145.904c-3.235-3.883-14.573-16.768-29.54-25.409l2.119-1.231
					c14.967,8.641,26.305,21.526,29.54,25.409L151.894,145.904"/>
				<path opacity="0.302" fill="#555A5A" d="M141.814,128.986c-4.391-3.779-9.549-7.67-15.23-10.95l2.113-1.228
					c5.681,3.28,10.84,7.171,15.23,10.95L141.814,128.986"/>
				<path fill="#555A5A" d="M146.047,126.527c-4.392-3.778-9.55-7.67-15.231-10.95l2.112-1.228c5.682,3.28,10.84,7.172,15.23,10.95
					L146.047,126.527"/>
				<path opacity="0.302" fill="#555A5A" d="M159.361,132.711c-5.402-5.652-13.999-13.629-24.321-19.589l2.118-1.231
					c10.322,5.96,18.919,13.938,24.322,19.589L159.361,132.711"/>
				<path opacity="0.302" fill="#555A5A" d="M163.592,130.252c-5.402-5.651-13.999-13.629-24.321-19.589l2.112-1.228
					c10.322,5.959,18.919,13.938,24.321,19.589L163.592,130.252"/>
				<path opacity="0.302" fill="#555A5A" d="M173.042,133.614c-3.235-3.883-14.573-16.768-29.54-25.409l2.111-1.227
					c14.967,8.641,26.306,21.525,29.541,25.409L173.042,133.614"/>
				<path opacity="0.302" fill="#555A5A" d="M177.266,131.159c-3.234-3.883-14.572-16.768-29.539-25.409l2.118-1.231
					c14.968,8.641,26.306,21.525,29.54,25.409L177.266,131.159"/>
			</g>
		</g>
	</g>
</g>
<g>
	<g>
		<path fill="#555A5A" d="M58.553,149.435C60.448,150.53,62,155.164,62,159.668c0,0.071,0,0.177,0,0.337l-6.895-3.955
			c0.001-0.341-0.001-0.436-0.003-0.437C55.143,151.201,56.68,148.354,58.553,149.435z"/>
	</g>
	<g>
		<path fill="#555A5A" d="M55.057,155.76c0-0.009,0-0.041,0-0.073c0-0.02,0.001-0.039,0.002-0.053
			C55.058,155.676,55.057,155.718,55.057,155.76z"/>
	</g>
</g>
<path fill="none" stroke="#555A5A" stroke-width="3" stroke-miterlimit="10" d="M194.588,136.586c-0.35-0.6-0.963-0.951-1.607-0.991
	l-1.978-10.198l-0.091-0.468l-0.347-0.433c-2.256-2.785-14.208-17.005-30.319-26.307c-6.954-4.015-12.51-5.052-15.904-3.079
	l-1.518,0.882c-1.444-2.982-5.967-11.107-14.381-15.966c-20.935-12.086-31.588-10.4-32.886-10.132L10.904,119.06l-0.228,0.047
	l-0.026,0.101l-0.251,0.977l-1.804,7.013c-0.689,0.002-1.359,0.352-1.729,0.992c-0.552,0.957-0.225,2.18,0.732,2.732l43.338,25.021
	l-0.006,2.106l14.388,8.307l0.006-2.105l42.962,24.804l85.576-49.733C194.818,138.765,195.143,137.541,194.588,136.586z"/>
<g>
	<g>
		<polygon fill="#75664D" points="174.734,125.585 175.229,128.337 174.258,128.302 173.859,126.094 170.593,125.252 
			170.143,122.774 166.883,121.938 166.434,119.46 163.174,118.624 162.68,115.882 163.65,115.916 164.049,118.115 167.309,118.951 
			167.759,121.43 171.019,122.266 171.469,124.744 		"/>
	</g>
	<g>
		<polygon fill="#75664D" points="181.078,121.899 181.571,124.65 180.602,124.616 180.202,122.408 176.936,121.566 
			176.486,119.088 173.227,118.252 172.777,115.774 169.518,114.938 169.023,112.195 169.993,112.23 170.393,114.429 
			173.652,115.265 174.102,117.744 177.361,118.58 177.812,121.058 		"/>
	</g>
	<g>
		<polygon fill="#75664D" points="178.959,123.13 179.459,125.878 178.482,125.847 178.084,123.639 174.817,122.797 
			174.368,120.319 171.107,119.483 170.658,117.005 167.398,116.169 166.91,113.423 167.881,113.458 168.273,115.66 
			171.533,116.496 171.983,118.975 175.243,119.811 175.693,122.289 		"/>
	</g>
	<g>
		<polygon fill="#75664D" points="176.847,124.358 177.347,127.105 176.37,127.075 175.971,124.867 172.705,124.025 
			172.256,121.547 168.996,120.711 168.546,118.232 165.286,117.396 164.793,114.654 165.769,114.685 166.162,116.888 
			169.422,117.724 169.871,120.202 173.131,121.038 173.58,123.516 		"/>
	</g>
	<g>
		<path fill="#F59619" d="M170.273,108.738l17.771,15.878c0,0-10.235,5.948-13.646,7.931c-1.17,0.68-4.679,0.719-4.679,0.719
			l-17.772-15.878c0,0,3.457-0.009,4.609-0.678C159.986,114.717,170.273,108.738,170.273,108.738z M176.37,127.075l0.977,0.031
			l-0.5-2.748l-3.267-0.842l-0.449-2.478l-3.26-0.836l-0.449-2.479l-3.26-0.836l-0.394-2.203l-0.976-0.031l0.493,2.742l3.26,0.836
			l0.45,2.479l3.26,0.836l0.449,2.478l3.266,0.842L176.37,127.075 M178.482,125.847l0.977,0.031l-0.5-2.748l-3.266-0.842
			l-0.45-2.478l-3.26-0.836l-0.45-2.479l-3.26-0.836l-0.393-2.203l-0.971-0.035l0.488,2.746l3.26,0.836l0.449,2.479l3.261,0.836
			l0.449,2.478l3.267,0.842L178.482,125.847 M180.602,124.616l0.97,0.034l-0.493-2.751l-3.267-0.841l-0.45-2.479l-3.26-0.836
			l-0.449-2.478l-3.26-0.836l-0.399-2.199l-0.97-0.035l0.494,2.743l3.26,0.836l0.449,2.478l3.26,0.836l0.449,2.479l3.267,0.841
			L180.602,124.616 M174.258,128.302l0.971,0.035l-0.494-2.751l-3.266-0.842l-0.45-2.478l-3.26-0.836l-0.45-2.479l-3.26-0.836
			l-0.398-2.199l-0.971-0.034l0.494,2.742l3.26,0.836l0.449,2.479l3.26,0.836l0.45,2.478l3.267,0.842L174.258,128.302"/>
	</g>
</g>
<ellipse fill="#FFFFFF" cx="161.537" cy="70.708" rx="23.277" ry="12.576"/>
<ellipse fill="#555A5A" cx="161.622" cy="41.729" rx="22.915" ry="13.359"/>
<path fill="#FFFFFF" d="M138,32l0.26,38.999c0,0,0.21,13.276,20.734,12.837c25.82-0.552,25.82-12.469,25.82-12.469l-0.075-39.286
	c0,0-3.378,10.319-23.274,11.327C145.881,44.198,138,32,138,32z"/>
<g>
	<g opacity="0.6">
		<g>
			<g>
				<path fill="none" stroke="#555A5A" stroke-width="1.2738" stroke-miterlimit="10" d="M184.12,70.5
					c0.001-0.423-0.032-0.847-0.102-1.269"/>
				<path fill="none" stroke="#555A5A" stroke-width="1.2738" stroke-miterlimit="10" stroke-dasharray="2.5935,2.5935" d="
					M183.206,66.777c-1.035-2.05-2.949-3.982-5.742-5.595c-8.839-5.103-23.175-5.1-31.955,0.003
					c-3.254,1.891-5.296,4.221-6.127,6.666"/>
				<path fill="none" stroke="#555A5A" stroke-width="1.2738" stroke-miterlimit="10" d="M139.063,69.106
					c-0.072,0.422-0.108,0.845-0.109,1.269"/>
			</g>
		</g>
	</g>
	<g>
		<path fill="none" stroke="#555A5A" stroke-width="1.2738" stroke-miterlimit="10" d="M181.327,77.587
			c-0.912,0.85-2.003,1.652-3.272,2.389c-9.051,5.26-23.821,5.26-32.932,0c-4.584-2.646-6.874-6.128-6.863-9.604l0.113-40.11
			c-0.01,3.476,2.279,6.957,6.864,9.604c9.11,5.26,23.88,5.26,32.931,0c4.498-2.614,6.75-6.042,6.761-9.475l-0.035,14.597"/>
		
			<line fill="none" stroke="#555A5A" stroke-width="1.2738" stroke-miterlimit="10" x1="184.894" y1="54.352" x2="184.814" y2="70.999"/>
	</g>
	<g>
		<path fill="none" stroke="#555A5A" stroke-width="1.2738" stroke-miterlimit="10" d="M178.066,20.789
			c9.11,5.26,9.153,13.818,0.102,19.078c-9.051,5.26-23.82,5.26-32.931,0c-9.11-5.26-9.158-13.814-0.107-19.075
			C154.182,15.532,168.956,15.529,178.066,20.789z M145.727,39.583c8.839,5.103,23.169,5.103,31.949,0
			c8.781-5.103,8.739-13.407-0.099-18.509c-8.838-5.103-23.174-5.1-31.954,0.002C136.841,26.18,136.889,34.48,145.727,39.583"/>
	</g>
	<g>
		<path fill="none" stroke="#555A5A" stroke-width="1.2738" stroke-miterlimit="10" d="M181.327,77.587
			c-0.912,0.85-2.003,1.652-3.272,2.389c-9.051,5.26-23.821,5.26-32.932,0c-4.584-2.646-6.874-6.128-6.863-9.604l0.113-40.11
			c-0.01,3.476,2.279,6.957,6.864,9.604c9.11,5.26,23.88,5.26,32.931,0c4.498-2.614,6.75-6.042,6.761-9.475l-0.035,14.597"/>
		
			<line fill="none" stroke="#555A5A" stroke-width="1.2738" stroke-miterlimit="10" x1="184.894" y1="54.352" x2="184.814" y2="70.999"/>
	</g>
	<g>
		<path fill="none" stroke="#555A5A" stroke-width="1.2738" stroke-miterlimit="10" d="M178.066,20.789
			c9.11,5.26,9.153,13.818,0.102,19.078c-9.051,5.26-23.82,5.26-32.931,0c-9.11-5.26-9.158-13.814-0.107-19.075
			C154.182,15.532,168.956,15.529,178.066,20.789z M145.727,39.583c8.839,5.103,23.169,5.103,31.949,0
			c8.781-5.103,8.739-13.407-0.099-18.509c-8.838-5.103-23.174-5.1-31.954,0.002C136.841,26.18,136.889,34.48,145.727,39.583"/>
	</g>
	<g>
		<path fill="none" stroke="#555A5A" stroke-width="1.2738" stroke-miterlimit="10" d="M181.073,47.875
			c0.083,0.049,0.169,0.098,0.252,0.148c4.821,2.929,8.404,8.479,9.105,14.478c0.64,5.468,0.851,12.267-2.365,14.556
			c-3.017,2.146-7.667,0.069-11.94-2.35c-1.879-1.085-1.863-4.403,0.01-3.339c2.838,1.602,6.21,3.435,8.604,2.786
			c2.555-0.7,3.126-4.143,3.114-7.59c-0.01-3.761-0.129-9.765-4.031-13.319c-0.675-0.613-1.656-1.343-2.672-1.93
			c-2.284-1.318-4.748-1.914-4.333,1.17c0.186,1.376-0.758,1.664-1.604,1.175c-0.562-0.324-1.081-0.989-1.203-1.904
			C173.265,46.246,176.987,45.516,181.073,47.875z"/>
	</g>
	<g>
		<path fill="none" stroke="#555A5A" stroke-width="1.2738" stroke-miterlimit="10" d="M179.51,47.118
			c-0.103-0.04-0.201-0.07-0.303-0.105C179.309,47.048,179.407,47.078,179.51,47.118z"/>
		<path fill="none" stroke="#555A5A" stroke-width="1.2738" stroke-miterlimit="10" d="M180.284,47.457
			c-0.089-0.043-0.174-0.076-0.26-0.116C180.11,47.381,180.195,47.414,180.284,47.457z"/>
		<path fill="none" stroke="#555A5A" stroke-width="1.2738" stroke-miterlimit="10" d="M177.348,46.618
			c-0.098-0.005-0.194-0.004-0.289-0.003C177.153,46.614,177.25,46.613,177.348,46.618z"/>
		<path fill="none" stroke="#555A5A" stroke-width="1.2738" stroke-miterlimit="10" d="M177.198,50.566
			c-0.018,0.016-0.033,0.036-0.051,0.054C177.165,50.602,177.181,50.582,177.198,50.566z"/>
		<path fill="none" stroke="#555A5A" stroke-width="1.2738" stroke-miterlimit="10" d="M176.984,50.848
			c0.014-0.025,0.028-0.048,0.043-0.071C177.013,50.8,176.998,50.823,176.984,50.848z"/>
		<path fill="none" stroke="#555A5A" stroke-width="1.2738" stroke-miterlimit="10" d="M178.034,46.697
			c-0.103-0.018-0.202-0.03-0.302-0.042C177.832,46.667,177.932,46.679,178.034,46.697z"/>
		<path fill="none" stroke="#555A5A" stroke-width="1.2738" stroke-miterlimit="10" d="M176.776,51.873
			c0,0.043-0.002,0.084,0.001,0.129C176.774,51.958,176.776,51.916,176.776,51.873z"/>
		<path fill="none" stroke="#555A5A" stroke-miterlimit="10" d="M177.685,50.412L177.685,50.412
			C177.685,50.411,177.685,50.411,177.685,50.412z"/>
		<path fill="none" stroke="#555A5A" stroke-width="1.2738" stroke-miterlimit="10" d="M176.866,51.123
			c0.003-0.008,0.007-0.016,0.01-0.024C176.873,51.107,176.869,51.114,176.866,51.123z"/>
		<path fill="none" stroke="#555A5A" stroke-width="1.2738" stroke-miterlimit="10" d="M178.758,46.864
			c-0.106-0.03-0.206-0.052-0.309-0.077C178.552,46.813,178.651,46.834,178.758,46.864z"/>
		<path fill="none" stroke="#555A5A" stroke-width="1.2738" stroke-miterlimit="10" d="M176.433,46.67
			c0.089-0.015,0.18-0.028,0.271-0.037C176.612,46.642,176.523,46.655,176.433,46.67z"/>
		<path fill="none" stroke="#555A5A" stroke-width="1.2738" stroke-miterlimit="10" d="M175.542,71.166
			c0.057,0.005,0.12,0.021,0.183,0.037C175.662,71.187,175.599,71.171,175.542,71.166z"/>
		<path fill="none" stroke="#555A5A" stroke-width="1.2738" stroke-miterlimit="10" d="M175.306,71.185
			c0.045-0.011,0.093-0.013,0.142-0.015C175.398,71.172,175.351,71.174,175.306,71.185z"/>
		<path fill="none" stroke="#555A5A" stroke-width="1.2738" stroke-miterlimit="10" d="M176.135,71.368
			c-0.111-0.063-0.217-0.109-0.316-0.144C175.918,71.258,176.023,71.305,176.135,71.368z"/>
		<path fill="none" stroke="#555A5A" stroke-width="1.2738" stroke-miterlimit="10" d="M184.739,74.154
			c0.245-0.067,0.468-0.167,0.679-0.284C185.208,73.987,184.985,74.086,184.739,74.154z"/>
		<path fill="none" stroke="#555A5A" stroke-width="1.2738" stroke-miterlimit="10" d="M176.788,51.567
			c0.003-0.036,0.005-0.073,0.01-0.108C176.793,51.494,176.791,51.531,176.788,51.567z"/>
		<path fill="none" stroke="#555A5A" stroke-width="1.2738" stroke-miterlimit="10" d="M176.837,52.95
			c0.009-0.139,0.003-0.293-0.02-0.465C176.84,52.656,176.846,52.811,176.837,52.95z"/>
		<path fill="none" stroke="#555A5A" stroke-width="1.2738" stroke-miterlimit="10" d="M176.615,53.588
			c0.034-0.043,0.059-0.103,0.086-0.155C176.674,53.486,176.649,53.545,176.615,53.588z"/>
		<path fill="none" stroke="#555A5A" stroke-width="1.2738" stroke-miterlimit="10" d="M175.861,46.822
			c0.081-0.03,0.165-0.057,0.249-0.08C176.026,46.766,175.942,46.792,175.861,46.822z"/>
		<path fill="none" stroke="#555A5A" stroke-width="1.2738" stroke-miterlimit="10" d="M176.764,53.316
			c0.034-0.094,0.052-0.204,0.064-0.323C176.815,53.112,176.798,53.223,176.764,53.316z"/>
		<path fill="none" stroke="#555A5A" stroke-width="1.2738" stroke-miterlimit="10" d="M194.773,59.977
			c-0.702-5.998-4.284-11.549-9.105-14.477c-0.084-0.051-0.168-0.101-0.251-0.148c-2.2-1.271-4.295-1.645-5.644-0.861l-4.343,2.524
			c0.044-0.026,0.096-0.04,0.142-0.063c-1.244,0.63-1.921,2.163-1.563,4.804c0.122,0.915,0.642,1.581,1.203,1.904
			c0.479,0.276,0.98,0.293,1.3,0.018c-0.035,0.031-0.067,0.069-0.106,0.092l4.343-2.524c0.041-0.023,0.071-0.062,0.108-0.093
			c0.098,0.053,0.194,0.105,0.293,0.162c1.016,0.587,1.997,1.316,2.672,1.93c3.902,3.555,4.021,9.559,4.031,13.319
			c0.007,1.856-0.159,3.706-0.71,5.132c-2.096-0.312-4.532-1.646-6.666-2.852c-0.427-0.243-0.759-0.257-0.992-0.122l-4.343,2.523
			c0.024-0.014,0.053-0.02,0.079-0.029c-0.882,0.362-0.591,2.627,0.903,3.49c4.273,2.418,8.924,4.495,11.94,2.35
			c-0.116,0.083-0.235,0.16-0.357,0.231l4.343-2.524c0.123-0.071,0.241-0.147,0.358-0.23
			C195.625,72.244,195.412,65.444,194.773,59.977z M176.11,46.743c-0.084,0.023-0.168,0.049-0.249,0.08
			C175.942,46.792,176.026,46.766,176.11,46.743z M176.615,53.588c0.034-0.043,0.059-0.103,0.086-0.155
			C176.674,53.486,176.649,53.545,176.615,53.588z M176.828,52.994c-0.013,0.119-0.03,0.229-0.064,0.323
			C176.798,53.223,176.815,53.112,176.828,52.994z M175.725,71.203c-0.063-0.016-0.126-0.032-0.183-0.037
			C175.599,71.171,175.662,71.187,175.725,71.203z M175.447,71.17c-0.049,0.002-0.097,0.004-0.142,0.015
			C175.351,71.174,175.398,71.172,175.447,71.17z M175.818,71.224c0.1,0.034,0.205,0.081,0.316,0.144
			C176.023,71.305,175.918,71.258,175.818,71.224z"/>
	</g>
	<g opacity="0.7" enable-background="new    ">
		<defs>
			<path id="SVGID_43_" opacity="0.7" enable-background="new    " d="M184.036,36.21c-0.025,8.747-0.05,17.492-0.074,26.239
				c-0.01,3.359-2.213,6.713-6.612,9.27c-8.861,5.15-23.324,5.15-32.243,0c-4.485-2.59-6.726-5.998-6.717-9.4
				c0.025-8.747,0.05-17.493,0.074-26.239c-0.01,3.403,2.231,6.81,6.717,9.4c8.92,5.15,23.382,5.149,32.243,0
				C181.824,42.923,184.026,39.569,184.036,36.21z"/>
		</defs>
		<clipPath id="SVGID_4_">
			<use xlink:href="#SVGID_43_"  overflow="visible"/>
		</clipPath>
		<g clip-path="url(#SVGID_4_)">
			<path fill="#0084A9" d="M139.94,53.553c0.224-0.969,0.398-1.734,0.751-3.051c0.299,1.685,0.516,2.902,0.972,5.102
				C140.982,54.944,140.407,54.258,139.94,53.553 M141.544,48.938c-0.623-0.619-1.151-1.262-1.587-1.92
				c-0.37,1.575-0.93,3.957-1.304,7.56c0.157,0.632,0.393,1.258,0.708,1.873c0.085-0.461,0.2-1.075,0.291-1.536
				c0.609,1.033,1.444,2.03,2.505,2.967c0.179,0.77,0.419,1.797,0.604,2.565c0.684,0.546,1.449,1.069,2.296,1.562
				c-0.631-1.979-2.106-6.616-3.332-12.237C141.671,49.522,141.667,49.164,141.544,48.938"/>
			<path fill="#0084A9" d="M148.796,57.64l0.005-2.369c0.456,0.172,0.92,0.334,1.392,0.485c2.318,0.794,1.623,2.191,1.243,2.394
				c-0.427,0.228-0.979,0.061-1.188-0.003C149.756,57.989,149.271,57.82,148.796,57.64 M151.008,54.1
				c-1.699-0.496-3.314-1.123-4.799-1.88l-0.03,10.402c0.828,0.423,1.697,0.805,2.599,1.146l0.012-4.222
				c0.26,0.098,0.52,0.192,0.783,0.283c0.857,0.316,0.857,0.316,3.215,5.146c1.073,0.248,2.172,0.447,3.286,0.597
				c-2.568-4.986-2.568-4.986-3.281-5.464c3.157-0.655,2.35-3.71,0.075-5.182C152.173,54.476,151.474,54.239,151.008,54.1"/>
			<path fill="#0084A9" d="M170.709,54.345c-0.835,0.219-1.688,0.406-2.556,0.564c-1.521,1.762-2.092,2.412-3.94,4.355
				c-1.756-1.594-2.293-2.093-3.997-3.765c-0.899-0.025-1.797-0.08-2.687-0.166L157.5,65.735c1.025,0.1,2.06,0.157,3.097,0.175
				l0.018-6.492c0.992,0.965,1.929,1.877,3.358,3.175c0.153-0.011,0.308-0.021,0.462-0.034c1.019-1.088,1.98-2.116,3.317-3.673
				l-0.018,6.493c1.001-0.17,1.984-0.382,2.945-0.633L170.709,54.345"/>
		</g>
	</g>
</g>
</svg>
