<?xml version="1.0" encoding="utf-8"?>
<!-- Generator: Adobe Illustrator 18.1.1, SVG Export Plug-In . SVG Version: 6.00 Build 0)  -->
<svg version="1.1" id="Layer_1" xmlns="http://www.w3.org/2000/svg" xmlns:xlink="http://www.w3.org/1999/xlink" x="0px" y="0px"
	 width="200px" height="200px" viewBox="0 0 200 200" enable-background="new 0 0 200 200" xml:space="preserve">
<g>
	<path fill="none" stroke="#555A5A" stroke-width="4" stroke-miterlimit="10" d="M20.336,90.066l89.355-52.029L181.5,79.598
		c0,0-4.62,8.225-4.62,19.265c0,11.323,4.62,15.604,4.62,15.604l-90.391,52.736l-71.986-41.56c0,0-5.125-5.044-5.125-17.226
		C13.998,95.47,20.336,90.066,20.336,90.066z"/>
	<g>
		<polygon fill="#FFFFFF" stroke="#555A5A" stroke-width="2" stroke-miterlimit="10" points="181.855,114.467 91.109,167.203 
			19.123,125.643 109.868,72.906 		"/>
	</g>
	<path fill="#D1D3D4" d="M91.109,165.203c0,0-2.305-8.699-2.299-18.958c0-1.346,0.045-2.556,0.122-3.64
		c0.036-0.5-6.079-4.155-6.079-4.155s6.296,1.958,6.347,1.6c0.653-4.629,1.899-6.073,1.899-6.073L18.5,92
		c0,0-3.252,12.342-3.25,15.917c0.001,4.23,3.873,15.726,3.873,15.726L91.109,165.203z"/>
	<path fill="#FFFFFF" d="M179.697,81.449c0,0-3.376,5.512-3.377,16.048c0,9.389,2.877,16.587,2.877,16.587l-88.088,51.119
		c-1.828-8.136-2.287-9.238-2.287-17.91c0-8.048,2.277-13.316,2.277-13.316L179.697,81.449z"/>
	<path opacity="0.4" fill="#BCBEC0" d="M179.311,82.893L91.1,133.977c0,0-0.978,2.262-1.652,6.085
		c-0.057,0.318-0.161,0.986-0.161,0.986s-0.139,0.979-0.197,1.5c-0.163,1.439-0.267,3.029-0.267,4.745
		c0,8.672,0.459,9.774,2.287,17.91c0,0,17.603-24.423,26.408-33.919C133.807,113.711,179.311,82.893,179.311,82.893"/>
	<polyline fill="none" stroke="#555A5A" stroke-miterlimit="10" points="17.259,97.132 89.666,138.938 178.331,87.748 	"/>
	<polyline fill="none" stroke="#555A5A" stroke-miterlimit="10" points="17.259,102.495 88.929,144.301 177.24,93.728 	"/>
	<polyline fill="none" stroke="#555A5A" stroke-miterlimit="10" points="17.259,107.86 88.893,149.666 176.88,98.862 	"/>
	<polyline fill="none" stroke="#555A5A" stroke-miterlimit="10" points="17.259,113.226 88.822,154.543 177.148,104.508 	"/>
	<polyline fill="none" stroke="#555A5A" stroke-miterlimit="10" points="17.259,117.697 89.666,159.501 177.82,109.134 	"/>
	<path fill="#FF3C52" d="M42,123.042l-12.45-7.325l-3.25,1.921c-2.011,1.162-3.602,4.231-3.595,6.85l0.133,40.245l5.318-5.857
		l7.299,13.181l0.637-0.367l-0.112-40.241c-0.007-2.211,1.186-4.791,2.847-5.75L42,123.776V123.042z"/>
	<path fill="#F59619" d="M37.838,120.359l-8.133-4.643l-3.327,1.921c-2.011,1.162-3.642,4.231-3.635,6.85l0.114,40.245l5.309-5.857
		l2.824,5.135l0,0l-0.092-35.195c-0.006-3.348,1.953-5.733,3.613-6.693L37.838,120.359L37.838,120.359z"/>
	<path fill="none" stroke="#555A5A" stroke-miterlimit="10" d="M179.448,114.688c0,0-2.562-5.332-2.568-15.825
		c-0.003-7.6,2.817-17.413,2.817-17.413"/>
	<path fill="none" stroke="#555A5A" stroke-width="2" stroke-miterlimit="10" d="M18.5,126c-1.669-3.19-4.594-9.834-4.5-18.666
		c0.08-7.556,2.332-13.35,3.833-16.5"/>
	<g enable-background="new    ">
		<g>
			<polygon fill="#D1D3D4" points="181.855,79.598 91.109,132.332 19.123,90.771 109.868,38.037 			"/>
		</g>
		<g>
			<polyline fill="#D1D3D4" points="109.868,38.037 19.123,90.771 91.109,132.332 			"/>
		</g>
	</g>
	<g enable-background="new    ">
		<g>
			<polygon fill="none" stroke="#555A5A" stroke-width="2" stroke-miterlimit="10" points="181.855,79.598 91.109,132.332 
				19.123,90.771 109.868,38.037 			"/>
		</g>
		<g>
			<polyline fill="none" stroke="#555A5A" stroke-width="2" stroke-miterlimit="10" points="91.109,132.332 19.123,90.771 
				109.868,38.037 			"/>
		</g>
	</g>
	<g>
		<g>
			<g>
				<path fill="#0084A9" d="M133.796,66.716c-0.334,0.527-0.65,1.029-0.946,1.504l-1.717-0.992c0.107-0.181,0.322-0.512,0.643-0.995
					c0.322-0.483,0.479-0.826,0.459-1.029c-0.02-0.195-0.136-0.358-0.34-0.476l-0.453-0.262l-2.537,1.475l-1.564-0.903l6.254-3.635
					l2.809,1.622c0.607,0.35,0.927,0.741,0.961,1.165c0.028,0.42-0.206,0.778-0.707,1.069c-0.685,0.398-1.556,0.49-2.608,0.265
					C134.223,65.787,134.143,66.188,133.796,66.716z M134.229,64.533c0.286,0.018,0.541-0.041,0.769-0.173
					c0.469-0.273,0.404-0.582-0.196-0.929l-0.792-0.457l-1.421,0.826l0.83,0.479C133.681,64.43,133.955,64.515,134.229,64.533"/>
			</g>
			<g>
				<path fill="#0084A9" d="M130.076,59.372l-3.464,5.246l-1.686-0.973l0.72-1.017l-2.816-1.626l-1.709,0.446l-1.66-0.958
					l8.795-2.168L130.076,59.372z M124.337,60.607l1.941,1.121l1.414-1.998L124.337,60.607"/>
			</g>
			<g>
				<polygon fill="#0084A9" points="146.6,68.913 140.345,72.548 138.781,71.644 142.682,69.377 139.03,69.532 138.794,69.396 
					139.049,67.28 135.148,69.547 133.578,68.64 139.832,65.005 141.192,65.79 140.894,68.308 145.24,68.127 				"/>
			</g>
		</g>
	</g>
	<g>
		<g>
			<g enable-background="new    ">
				<defs>
					<polygon id="SVGID_73_" enable-background="new    " points="44.535,91.956 85.607,68.087 129.68,93.533 88.608,117.402 					
						"/>
				</defs>
				<clipPath id="SVGID_1_">
					<use xlink:href="#SVGID_73_"  overflow="visible"/>
				</clipPath>
				<g clip-path="url(#SVGID_1_)">
					<g>
						<g>
							<g>
								<polyline fill="#F59619" points="85.846,75.471 79.352,71.722 54.398,86.224 69.489,77.454 75.982,81.203 85.846,75.471 
																	"/>
								<polyline fill="#00C473" points="75.982,81.203 69.489,77.454 54.398,86.224 44.535,91.956 51.028,95.705 75.982,81.203 
																	"/>
								<polyline fill="#FF3C52" points="90.013,73.049 83.52,69.3 79.352,71.722 85.846,75.471 90.013,73.049 								"/>
								<polyline fill="#FF3C52" points="116.362,90.393 109.869,86.644 105.701,89.066 107.541,87.997 114.034,91.745 
									116.362,90.393 								"/>
								<polyline fill="#F59619" points="86.985,85.696 80.486,81.944 72.138,86.795 78.465,90.448 70.118,95.299 70.29,95.399 
									86.985,85.696 								"/>
								<polyline fill="#FF3C52" points="101.693,88.17 95.2,84.421 91.033,86.843 93.113,85.634 99.606,89.383 101.693,88.17 
																	"/>
								<polyline fill="#F59619" points="99.606,89.383 93.113,85.634 91.033,86.843 73.31,97.142 85.787,89.891 92.28,93.64 
									99.606,89.383 								"/>
								<polyline fill="#F59619" points="114.034,91.745 107.541,87.997 105.701,89.066 82.587,102.498 97.677,93.729 
									104.17,97.477 114.034,91.745 								"/>
								<polyline fill="#F59619" points="119.153,92.129 91.979,107.921 111.782,96.412 118.275,100.161 125.513,95.955 
									119.019,92.206 119.153,92.129 								"/>
								<polyline fill="#FF3C52" points="129.68,93.533 123.187,89.784 119.153,92.129 119.019,92.206 125.513,95.955 
									129.68,93.533 								"/>
								<polyline fill="#00C473" points="92.28,93.64 85.787,89.891 73.31,97.142 63.446,102.874 69.939,106.623 92.28,93.64 
																	"/>
								<polyline fill="#00C473" points="78.465,90.448 72.138,86.795 71.966,86.695 53.754,97.279 60.254,101.031 70.118,95.299 
									78.465,90.448 								"/>
								<polyline fill="#00C473" points="104.17,97.477 97.677,93.729 82.587,102.498 72.723,108.23 79.216,111.979 104.17,97.477 
																	"/>
								<polyline fill="#00C473" points="118.275,100.161 111.782,96.412 91.979,107.921 82.115,113.653 88.608,117.402 
									118.275,100.161 								"/>
							</g>
						</g>
					</g>
				</g>
			</g>
		</g>
	</g>
</g>
</svg>
