<?xml version="1.0" encoding="utf-8"?>
<!-- Generator: Adobe Illustrator 18.1.1, SVG Export Plug-In . SVG Version: 6.00 Build 0)  -->
<svg version="1.1" id="Layer_1" xmlns="http://www.w3.org/2000/svg" xmlns:xlink="http://www.w3.org/1999/xlink" x="0px" y="0px"
	 width="200px" height="200px" viewBox="0 0 200 200" enable-background="new 0 0 200 200" xml:space="preserve">
<path fill="none" stroke="#555A5A" stroke-width="4" stroke-miterlimit="10" d="M22.336,90.066l89.355-52.029L183.5,79.598
	c0,0-4.62,8.225-4.62,19.265c0,11.323,4.62,15.604,4.62,15.604l-90.391,52.736l-71.986-41.56c0,0-5.125-5.044-5.125-17.226
	C15.998,95.47,22.336,90.066,22.336,90.066z"/>
<g>
	<polygon fill="#FFFFFF" stroke="#555A5A" stroke-width="2" stroke-miterlimit="10" points="183.855,114.467 93.109,167.203 
		21.123,125.643 111.868,72.906 	"/>
</g>
<path fill="#D1D3D4" d="M93.109,165.203c0,0-2.305-8.699-2.299-18.958c0-1.346,0.045-2.556,0.122-3.64
	c0.036-0.5-6.079-4.155-6.079-4.155s6.296,1.958,6.347,1.6c0.653-4.629,1.899-6.073,1.899-6.073L20.5,92
	c0,0-3.252,12.342-3.25,15.917c0.001,4.23,3.873,15.726,3.873,15.726L93.109,165.203z"/>
<path fill="#FFFFFF" d="M181.697,81.449c0,0-3.376,5.512-3.377,16.048c0,9.389,2.877,16.587,2.877,16.587l-88.088,51.119
	c-1.828-8.136-2.287-9.238-2.287-17.91c0-8.048,2.277-13.316,2.277-13.316L181.697,81.449z"/>
<path opacity="0.4" fill="#BCBEC0" d="M181.311,82.893L93.1,133.977c0,0-0.978,2.262-1.652,6.085
	c-0.057,0.318-0.161,0.986-0.161,0.986s-0.139,0.979-0.197,1.5c-0.163,1.439-0.267,3.029-0.267,4.745
	c0,8.672,0.459,9.774,2.287,17.91c0,0,17.603-24.423,26.408-33.919C135.807,113.711,181.311,82.893,181.311,82.893"/>
<polyline fill="none" stroke="#555A5A" stroke-miterlimit="10" points="19.259,97.132 91.666,138.938 180.331,87.748 "/>
<polyline fill="none" stroke="#555A5A" stroke-miterlimit="10" points="19.259,102.495 90.929,144.301 179.24,93.728 "/>
<polyline fill="none" stroke="#555A5A" stroke-miterlimit="10" points="19.259,107.86 90.893,149.666 178.88,98.862 "/>
<polyline fill="none" stroke="#555A5A" stroke-miterlimit="10" points="19.259,113.226 90.822,154.543 179.148,104.508 "/>
<polyline fill="none" stroke="#555A5A" stroke-miterlimit="10" points="19.259,117.697 91.666,159.501 179.82,109.134 "/>
<path fill="#FF3C52" d="M44,123.042l-12.45-7.325l-3.25,1.921c-2.011,1.162-3.602,4.231-3.595,6.85l0.133,40.245l5.318-5.857
	l7.299,13.181l0.637-0.367l-0.112-40.241c-0.007-2.211,1.186-4.791,2.847-5.75L44,123.776V123.042z"/>
<path fill="#F59619" d="M39.838,120.359l-8.133-4.643l-3.327,1.921c-2.011,1.162-3.642,4.231-3.635,6.85l0.114,40.245l5.309-5.857
	l2.824,5.135l0,0l-0.092-35.195c-0.006-3.348,1.953-5.733,3.613-6.693L39.838,120.359L39.838,120.359z"/>
<path fill="none" stroke="#555A5A" stroke-miterlimit="10" d="M181.448,114.688c0,0-2.562-5.332-2.568-15.825
	c-0.003-7.6,2.817-17.413,2.817-17.413"/>
<path fill="none" stroke="#555A5A" stroke-width="2" stroke-miterlimit="10" d="M20.5,126c-1.669-3.19-4.594-9.834-4.5-18.666
	c0.08-7.556,2.332-13.35,3.833-16.5"/>
<g enable-background="new    ">
	<g>
		<polygon fill="#FFFFFF" points="183.855,79.598 93.109,132.332 21.123,90.771 111.868,38.037 		"/>
	</g>
	<g>
		<polyline fill="#FFFFFF" points="111.868,38.037 21.123,90.771 93.109,132.332 		"/>
	</g>
</g>
<g>
	<polygon fill="#F59619" points="183.855,79.598 161.014,92.871 89.393,51.099 111.868,38.037 	"/>
</g>
<g>
	<g>
		<g>
			<polygon fill="#555A5A" points="127.491,84.725 116.917,90.871 115.384,89.986 123.611,85.205 116.251,85.687 115.97,85.525 
				116.741,81.238 108.514,86.019 106.995,85.142 117.569,78.997 119.012,79.83 118.204,84.397 126.067,83.903 			"/>
		</g>
		<g>
			<path fill="#555A5A" d="M106.039,83.715l-0.187,0.767l-1.813-1.047l0.232-0.675l0.037-0.125l0.119-0.417l0.295-0.719l0.314-0.774
				c0.125-0.435,0.18-0.8,0.179-1.102c-0.008-0.299-0.054-0.546-0.151-0.734c-0.103-0.184-0.403-0.424-0.901-0.711l-0.396-0.229
				l-4.599,2.673l-1.526-0.881l10.574-6.145l2.669,1.541c1.079,0.623,1.668,1.272,1.774,1.943c0.099,0.674-0.305,1.272-1.205,1.795
				c-0.615,0.358-1.301,0.579-2.065,0.66c-0.757,0.085-1.54,0.022-2.337-0.181c0.116,0.324,0.144,0.693,0.089,1.102
				c-0.055,0.409-0.274,1.062-0.632,1.958C106.276,82.978,106.12,83.409,106.039,83.715z M107.485,78.304
				c0.421,0.089,0.834,0.1,1.266,0.041c0.42-0.059,0.801-0.192,1.137-0.387s0.545-0.42,0.639-0.682
				c0.094-0.254,0.029-0.513-0.176-0.763c-0.218-0.251-0.691-0.59-1.438-1.021l-0.46-0.265l-3.337,1.939l0.581,0.336
				C106.471,77.946,107.064,78.215,107.485,78.304"/>
		</g>
		<g>
			<polygon fill="#555A5A" points="106.747,72.733 105.402,73.515 101.686,71.369 92.444,76.741 90.912,75.856 100.154,70.485 
				96.508,68.38 97.853,67.598 			"/>
		</g>
	</g>
</g>
<g>
	<polygon fill="#F59619" points="129.428,110.885 93.109,132.332 22.336,90.066 58.357,69.134 	"/>
</g>
<g enable-background="new    ">
	<g>
		<polygon fill="none" stroke="#555A5A" stroke-width="2" stroke-miterlimit="10" points="183.855,79.598 93.109,132.332 
			21.123,90.771 111.868,38.037 		"/>
	</g>
	<g>
		<polyline fill="none" stroke="#555A5A" stroke-width="2" stroke-miterlimit="10" points="93.109,132.332 21.123,90.771 
			111.868,38.037 		"/>
	</g>
</g>
<g>
	<g>
		<g>
			<polygon fill="#FFFFFF" points="148.602,68.915 142.354,72.546 140.783,71.639 144.685,69.372 141.026,69.53 140.79,69.394 
				141.052,67.274 137.151,69.541 135.58,68.635 141.828,65.004 143.194,65.792 142.897,68.303 147.236,68.126 			"/>
		</g>
		<g>
			<path fill="#FFFFFF" d="M135.798,66.71c-0.341,0.531-0.656,1.032-0.946,1.504l-1.717-0.992c0.101-0.177,0.315-0.509,0.637-0.992
				c0.322-0.483,0.479-0.826,0.459-1.029c-0.014-0.199-0.129-0.361-0.334-0.479l-0.453-0.262l-2.537,1.475l-1.564-0.903l6.248-3.631
				l2.809,1.622c0.613,0.354,0.927,0.741,0.961,1.165c0.034,0.424-0.206,0.778-0.7,1.065c-0.691,0.402-1.556,0.49-2.608,0.265
				C136.226,65.789,136.145,66.183,135.798,66.71z M136.232,64.535c0.28,0.015,0.534-0.044,0.763-0.177
				c0.469-0.273,0.404-0.582-0.19-0.925l-0.798-0.461l-1.421,0.826l0.83,0.479C135.684,64.432,135.951,64.513,136.232,64.535"/>
		</g>
		<g>
			<path fill="#FFFFFF" d="M132.072,59.371l-3.458,5.242l-1.679-0.97l0.707-1.017L124.827,61l-1.703,0.442l-1.66-0.959l8.789-2.164
				L132.072,59.371z M126.333,60.606l1.947,1.124l1.408-2.002L126.333,60.606"/>
		</g>
	</g>
</g>
</svg>
